<svg id="svg" version="1.1" width="1000" height="121" xmlns="http://www.w3.org/2000/svg" xmlns:xlink="http://www.w3.org/1999/xlink" style="display: block;"><g id="svgg"><path id="path0" d="M62.000 24.200 L 62.000 48.400 65.000 48.400 L 68.000 48.400 68.000 24.200 L 68.000 0.000 65.000 0.000 L 62.000 0.000 62.000 24.200 M151.200 24.200 L 151.200 48.400 154.200 48.400 L 157.200 48.400 157.200 24.200 L 157.200 0.000 154.200 0.000 L 151.200 0.000 151.200 24.200 M242.800 24.200 L 242.800 48.400 245.800 48.400 L 248.800 48.400 248.800 24.200 L 248.800 0.000 245.800 0.000 L 242.800 0.000 242.800 24.200 M332.000 24.200 L 332.000 48.400 335.000 48.400 L 338.000 48.400 338.000 24.200 L 338.000 0.000 335.000 0.000 L 332.000 0.000 332.000 24.200 M95.600 8.622 L 95.600 15.644 97.500 15.522 C 99.382 15.401,99.401 15.386,99.524 13.900 C 99.592 13.075,99.817 12.400,100.024 12.400 C 100.231 12.400,100.400 11.969,100.400 11.443 C 100.400 10.916,100.670 10.382,101.000 10.255 C 101.330 10.129,101.600 9.659,101.600 9.213 C 101.600 8.612,101.862 8.400,102.600 8.400 C 103.150 8.400,103.600 8.220,103.600 8.000 C 103.600 7.774,104.733 7.600,106.200 7.600 L 108.800 7.600 108.800 23.000 C 108.800 40.179,108.829 40.000,106.000 40.000 C 105.340 40.000,104.800 40.180,104.800 40.400 C 104.800 40.620,104.530 40.800,104.200 40.800 C 103.767 40.800,103.600 41.244,103.600 42.400 L 103.600 44.000 114.200 44.000 L 124.800 44.000 124.800 42.400 C 124.800 41.244,124.633 40.800,124.200 40.800 C 123.870 40.800,123.600 40.620,123.600 40.400 C 123.600 40.180,122.700 40.000,121.600 40.000 C 119.733 40.000,119.600 39.933,119.600 39.000 C 119.600 38.450,119.420 38.000,119.200 38.000 C 118.940 38.000,118.800 32.667,118.800 22.800 L 118.800 7.600 121.800 7.600 C 123.533 7.600,124.800 7.769,124.800 8.000 C 124.800 8.220,125.070 8.400,125.400 8.400 C 125.730 8.400,126.000 8.593,126.000 8.829 C 126.000 9.382,127.018 10.400,127.571 10.400 C 127.807 10.400,128.000 11.120,128.000 12.000 C 128.000 12.880,128.180 13.600,128.400 13.600 C 128.620 13.600,128.800 14.050,128.800 14.600 C 128.800 15.533,128.933 15.600,130.800 15.600 L 132.800 15.600 132.800 12.824 C 132.800 11.297,132.620 9.936,132.400 9.800 C 132.177 9.662,132.000 7.796,132.000 5.576 L 132.000 1.600 130.146 1.600 C 128.682 1.600,128.097 1.810,127.365 2.600 L 126.438 3.600 114.252 3.600 C 101.919 3.600,99.615 3.333,99.603 1.900 C 99.601 1.735,98.700 1.600,97.600 1.600 L 95.600 1.600 95.600 8.622 M199.600 3.000 C 199.600 3.330,199.330 3.600,199.000 3.600 C 198.670 3.600,198.400 3.870,198.400 4.200 C 198.400 4.530,198.220 4.800,198.000 4.800 C 197.780 4.800,197.600 5.231,197.600 5.757 C 197.600 6.284,197.330 6.818,197.000 6.945 C 196.649 7.079,196.400 7.679,196.400 8.387 C 196.400 9.054,196.220 9.600,196.000 9.600 C 195.780 9.600,195.600 10.031,195.600 10.557 C 195.600 11.084,195.330 11.618,195.000 11.745 C 194.623 11.889,194.400 12.501,194.400 13.387 C 194.400 14.164,194.220 14.800,194.000 14.800 C 193.780 14.800,193.600 15.231,193.600 15.757 C 193.600 16.284,193.330 16.818,193.000 16.945 C 192.649 17.079,192.400 17.679,192.400 18.387 C 192.400 19.054,192.220 19.600,192.000 19.600 C 191.780 19.600,191.600 20.140,191.600 20.800 C 191.600 21.600,191.400 22.000,191.000 22.000 C 190.581 22.000,190.400 22.422,190.400 23.400 C 190.400 24.170,190.220 24.800,190.000 24.800 C 189.780 24.800,189.600 25.231,189.600 25.757 C 189.600 26.284,189.330 26.818,189.000 26.945 C 188.623 27.089,188.400 27.701,188.400 28.587 C 188.400 29.364,188.220 30.000,188.000 30.000 C 187.780 30.000,187.600 30.450,187.600 31.000 C 187.600 31.622,187.373 32.000,187.000 32.000 C 186.581 32.000,186.400 32.422,186.400 33.400 C 186.400 34.170,186.220 34.800,186.000 34.800 C 185.780 34.800,185.600 35.231,185.600 35.757 C 185.600 36.284,185.330 36.818,185.000 36.945 C 184.670 37.071,184.400 37.451,184.400 37.787 C 184.400 38.740,182.909 40.000,181.783 40.000 C 180.312 40.000,179.111 41.270,179.269 42.658 L 179.400 43.800 186.900 43.909 L 194.400 44.018 194.400 42.009 L 194.400 40.000 192.896 40.000 C 191.106 40.000,189.782 38.578,190.959 37.919 C 191.354 37.698,191.600 37.031,191.600 36.180 C 191.600 35.421,191.780 34.800,192.000 34.800 C 192.220 34.800,192.400 34.080,192.400 33.200 L 192.400 31.600 198.000 31.600 L 203.600 31.600 203.600 32.600 C 203.600 33.222,203.827 33.600,204.200 33.600 C 204.633 33.600,204.800 34.044,204.800 35.200 C 204.800 36.080,204.980 36.800,205.200 36.800 C 205.420 36.800,205.600 37.520,205.600 38.400 C 205.600 39.840,205.500 40.000,204.600 40.000 C 204.050 40.000,203.600 40.180,203.600 40.400 C 203.600 40.620,203.319 40.800,202.976 40.800 C 202.499 40.800,202.381 41.155,202.476 42.300 L 202.600 43.800 212.100 43.907 L 221.600 44.014 221.600 42.579 C 221.600 40.761,220.841 40.000,219.029 40.000 C 218.025 40.000,217.600 39.821,217.600 39.400 C 217.600 39.070,217.420 38.800,217.200 38.800 C 216.980 38.800,216.800 38.350,216.800 37.800 C 216.800 37.178,216.573 36.800,216.200 36.800 C 215.781 36.800,215.600 36.378,215.600 35.400 C 215.600 34.630,215.420 34.000,215.200 34.000 C 214.980 34.000,214.800 33.550,214.800 33.000 C 214.800 32.378,214.573 32.000,214.200 32.000 C 213.767 32.000,213.600 31.556,213.600 30.400 C 213.600 29.520,213.420 28.800,213.200 28.800 C 212.980 28.800,212.800 28.363,212.800 27.829 C 212.800 27.294,212.530 26.587,212.200 26.257 C 211.870 25.927,211.600 25.194,211.600 24.629 C 211.600 24.063,211.420 23.600,211.200 23.600 C 210.980 23.600,210.800 23.054,210.800 22.387 C 210.800 21.679,210.551 21.079,210.200 20.945 C 209.828 20.802,209.600 20.193,209.600 19.345 C 209.600 18.496,209.372 17.887,209.000 17.745 C 208.670 17.618,208.400 17.084,208.400 16.557 C 208.400 16.031,208.220 15.600,208.000 15.600 C 207.780 15.600,207.600 14.970,207.600 14.200 C 207.600 13.222,207.419 12.800,207.000 12.800 C 206.567 12.800,206.400 12.356,206.400 11.200 C 206.400 10.320,206.220 9.600,206.000 9.600 C 205.780 9.600,205.600 8.970,205.600 8.200 C 205.600 7.222,205.419 6.800,205.000 6.800 C 204.627 6.800,204.400 6.422,204.400 5.800 C 204.400 5.250,204.220 4.800,204.000 4.800 C 203.780 4.800,203.600 4.260,203.600 3.600 C 203.600 2.427,203.556 2.400,201.600 2.400 C 200.089 2.400,199.600 2.547,199.600 3.000 M0.478 5.500 C 0.599 7.382,0.614 7.401,2.100 7.524 C 2.925 7.592,3.600 7.817,3.600 8.024 C 3.600 8.231,3.870 8.400,4.200 8.400 C 4.723 8.400,4.800 10.333,4.800 23.400 C 4.800 39.993,4.799 40.000,2.171 40.000 C 0.748 40.000,-0.000 40.886,-0.000 42.571 L 0.000 44.000 12.800 44.000 C 23.911 44.000,25.600 43.921,25.600 43.400 C 25.600 42.947,26.089 42.800,27.600 42.800 C 28.700 42.800,29.600 42.620,29.600 42.400 C 29.600 42.180,30.056 42.000,30.613 42.000 C 31.169 42.000,31.729 41.730,31.855 41.400 C 31.982 41.070,32.381 40.794,32.743 40.787 C 33.572 40.771,34.800 39.857,34.800 39.256 C 34.800 39.005,35.250 38.800,35.800 38.800 C 36.366 38.800,36.800 38.569,36.800 38.268 C 36.800 37.975,37.250 37.494,37.800 37.200 C 38.428 36.864,38.800 36.318,38.800 35.732 C 38.800 35.170,39.038 34.800,39.400 34.800 C 39.773 34.800,40.000 34.422,40.000 33.800 C 40.000 33.250,40.180 32.800,40.400 32.800 C 40.620 32.800,40.800 32.350,40.800 31.800 C 40.800 31.178,41.027 30.800,41.400 30.800 C 41.853 30.800,42.000 30.311,42.000 28.800 C 42.000 27.700,42.180 26.800,42.400 26.800 C 42.643 26.800,42.800 25.000,42.800 22.200 C 42.800 19.400,42.643 17.600,42.400 17.600 C 42.180 17.600,42.000 16.970,42.000 16.200 C 42.000 15.222,41.819 14.800,41.400 14.800 C 41.027 14.800,40.800 14.422,40.800 13.800 C 40.800 13.250,40.620 12.800,40.400 12.800 C 40.180 12.800,40.000 12.350,40.000 11.800 C 40.000 11.178,39.773 10.800,39.400 10.800 C 39.070 10.800,38.800 10.607,38.800 10.371 C 38.800 9.818,37.782 8.800,37.229 8.800 C 36.993 8.800,36.800 8.607,36.800 8.371 C 36.800 7.666,35.714 6.800,34.829 6.800 C 34.359 6.800,34.000 6.540,34.000 6.200 C 34.000 5.827,33.622 5.600,33.000 5.600 C 32.450 5.600,32.000 5.420,32.000 5.200 C 32.000 4.980,31.280 4.800,30.400 4.800 C 29.244 4.800,28.800 4.633,28.800 4.200 C 28.800 3.678,26.953 3.600,14.578 3.600 L 0.356 3.600 0.478 5.500 M272.400 5.000 C 272.400 5.770,272.580 6.400,272.800 6.400 C 273.020 6.400,273.200 6.670,273.200 7.000 C 273.200 7.433,273.644 7.600,274.800 7.600 C 275.680 7.600,276.400 7.780,276.400 8.000 C 276.400 8.220,276.850 8.400,277.400 8.400 C 278.022 8.400,278.400 8.627,278.400 9.000 C 278.400 9.330,278.560 9.600,278.757 9.600 C 278.953 9.600,279.226 10.050,279.364 10.600 C 279.502 11.150,279.792 11.600,280.008 11.600 C 280.223 11.600,280.400 11.870,280.400 12.200 C 280.400 12.530,280.580 12.800,280.800 12.800 C 281.020 12.800,281.200 13.027,281.200 13.304 C 281.200 13.581,281.650 14.293,282.200 14.887 C 282.750 15.480,283.200 16.333,283.200 16.783 C 283.200 17.243,283.462 17.600,283.800 17.600 C 284.173 17.600,284.400 17.978,284.400 18.600 C 284.400 19.222,284.627 19.600,285.000 19.600 C 285.330 19.600,285.600 19.870,285.600 20.200 C 285.600 20.530,285.780 20.800,286.000 20.800 C 286.220 20.800,286.400 21.250,286.400 21.800 C 286.400 22.385,286.630 22.800,286.953 22.800 C 287.868 22.800,288.014 24.796,287.153 25.533 C 286.739 25.888,286.400 26.498,286.400 26.889 C 286.400 27.280,286.220 27.600,286.000 27.600 C 285.780 27.600,285.600 27.870,285.600 28.200 C 285.600 28.530,285.330 28.800,285.000 28.800 C 284.670 28.800,284.400 29.070,284.400 29.400 C 284.400 29.730,284.232 30.000,284.027 30.000 C 283.822 30.000,283.529 30.394,283.376 30.875 C 283.224 31.356,282.492 32.322,281.749 33.022 C 281.007 33.722,280.400 34.678,280.400 35.147 C 280.400 35.616,280.207 36.000,279.971 36.000 C 279.418 36.000,278.400 37.018,278.400 37.571 C 278.400 37.807,278.130 38.000,277.800 38.000 C 277.470 38.000,277.200 38.180,277.200 38.400 C 277.200 38.620,276.834 38.800,276.387 38.800 C 275.941 38.800,275.471 39.070,275.345 39.400 C 275.203 39.770,274.595 40.000,273.757 40.000 C 273.011 40.000,272.400 40.180,272.400 40.400 C 272.400 40.620,272.119 40.800,271.776 40.800 C 271.299 40.800,271.181 41.155,271.276 42.300 L 271.400 43.800 279.900 43.908 L 288.400 44.016 288.400 42.408 C 288.400 41.245,288.234 40.800,287.800 40.800 C 287.470 40.800,287.200 40.620,287.200 40.400 C 287.200 40.180,286.570 40.000,285.800 40.000 C 284.822 40.000,284.400 39.819,284.400 39.400 C 284.400 39.070,284.580 38.800,284.800 38.800 C 285.020 38.800,285.200 38.350,285.200 37.800 C 285.200 37.178,285.427 36.800,285.800 36.800 C 286.130 36.800,286.400 36.530,286.400 36.200 C 286.400 35.870,286.580 35.600,286.800 35.600 C 287.020 35.600,287.200 35.150,287.200 34.600 C 287.200 33.978,287.427 33.600,287.800 33.600 C 288.140 33.600,288.400 33.241,288.400 32.771 C 288.400 31.886,289.266 30.800,289.971 30.800 C 290.207 30.800,290.400 30.350,290.400 29.800 C 290.400 29.178,290.627 28.800,291.000 28.800 C 291.373 28.800,291.600 29.178,291.600 29.800 C 291.600 30.350,291.780 30.800,292.000 30.800 C 292.220 30.800,292.400 31.166,292.400 31.613 C 292.400 32.059,292.670 32.529,293.000 32.655 C 293.330 32.782,293.606 33.181,293.613 33.543 C 293.629 34.372,294.543 35.600,295.144 35.600 C 295.395 35.600,295.600 36.039,295.600 36.576 C 295.600 37.113,295.780 37.664,296.000 37.800 C 296.792 38.289,296.458 40.000,295.571 40.000 C 294.338 40.000,293.600 40.965,293.600 42.578 L 293.600 44.013 304.100 43.907 L 314.600 43.800 314.733 42.859 C 315.030 40.763,314.507 40.000,312.773 40.000 C 311.568 40.000,310.928 39.748,310.235 39.000 C 309.725 38.450,309.104 38.000,308.854 38.000 C 308.604 38.000,308.400 37.807,308.400 37.571 C 308.400 37.018,307.382 36.000,306.829 36.000 C 306.593 36.000,306.400 35.550,306.400 35.000 C 306.400 34.450,306.220 34.000,306.000 34.000 C 305.780 34.000,305.600 33.730,305.600 33.400 C 305.600 33.070,305.330 32.800,305.000 32.800 C 304.627 32.800,304.400 32.422,304.400 31.800 C 304.400 31.250,304.220 30.800,304.000 30.800 C 303.780 30.800,303.600 30.434,303.600 29.987 C 303.600 29.541,303.330 29.071,303.000 28.945 C 302.670 28.818,302.400 28.464,302.400 28.157 C 302.400 27.851,302.220 27.600,302.000 27.600 C 301.780 27.600,301.600 27.265,301.600 26.856 C 301.600 26.447,301.150 25.774,300.600 25.361 C 300.049 24.947,299.600 24.204,299.600 23.705 C 299.600 23.167,299.357 22.800,299.000 22.800 C 298.627 22.800,298.400 22.422,298.400 21.800 C 298.400 21.250,298.220 20.800,298.000 20.800 C 297.780 20.800,297.600 20.530,297.600 20.200 C 297.600 19.870,297.780 19.600,298.000 19.600 C 298.220 19.600,298.400 19.330,298.400 19.000 C 298.400 18.670,298.670 18.400,299.000 18.400 C 299.333 18.400,299.600 18.044,299.600 17.600 C 299.600 17.160,299.780 16.800,300.000 16.800 C 300.220 16.800,300.400 16.530,300.400 16.200 C 300.400 15.870,300.670 15.600,301.000 15.600 C 301.330 15.600,301.600 15.330,301.600 15.000 C 301.600 14.670,301.780 14.400,302.000 14.400 C 302.220 14.400,302.400 14.040,302.400 13.600 C 302.400 13.156,302.667 12.800,303.000 12.800 C 303.330 12.800,303.600 12.530,303.600 12.200 C 303.600 11.870,303.780 11.600,304.000 11.600 C 304.220 11.600,304.400 11.330,304.400 11.000 C 304.400 10.670,304.593 10.400,304.829 10.400 C 305.382 10.400,306.400 9.382,306.400 8.829 C 306.400 8.593,306.850 8.400,307.400 8.400 C 307.950 8.400,308.400 8.220,308.400 8.000 C 308.400 7.780,309.120 7.600,310.000 7.600 C 311.156 7.600,311.600 7.433,311.600 7.000 C 311.600 6.670,311.870 6.400,312.200 6.400 C 312.619 6.400,312.800 5.978,312.800 5.000 L 312.800 3.600 304.578 3.600 L 296.356 3.600 296.478 5.500 C 296.599 7.382,296.614 7.401,298.100 7.524 C 299.419 7.633,300.432 8.800,299.208 8.800 C 298.992 8.800,298.702 9.250,298.564 9.800 C 298.426 10.350,298.153 10.800,297.957 10.800 C 297.760 10.800,297.600 11.250,297.600 11.800 C 297.600 12.350,297.395 12.800,297.144 12.800 C 296.529 12.800,295.628 14.035,295.613 14.900 C 295.584 16.454,292.400 13.962,292.400 12.386 C 292.400 11.954,292.220 11.600,292.000 11.600 C 291.780 11.600,291.600 11.343,291.600 11.029 C 291.600 10.714,291.363 10.219,291.072 9.929 C 289.966 8.820,290.000 7.655,291.143 7.522 C 292.100 7.412,292.212 7.219,292.322 5.500 L 292.444 3.600 282.422 3.600 L 272.400 3.600 272.400 5.000 M366.400 5.000 C 366.400 5.770,366.580 6.400,366.800 6.400 C 367.020 6.400,367.200 6.670,367.200 7.000 C 367.200 7.421,367.625 7.600,368.629 7.600 C 371.273 7.600,371.200 7.141,371.200 23.771 C 371.200 33.524,371.060 38.800,370.800 38.800 C 370.580 38.800,370.400 39.070,370.400 39.400 C 370.400 39.833,369.956 40.000,368.800 40.000 C 367.920 40.000,367.200 40.180,367.200 40.400 C 367.200 40.620,366.750 40.800,366.200 40.800 C 365.300 40.800,365.200 40.960,365.200 42.400 L 365.200 44.000 381.800 44.000 L 398.400 44.000 398.400 42.443 C 398.400 41.508,398.615 40.803,398.938 40.679 C 399.662 40.401,400.196 33.318,399.551 32.541 C 398.467 31.235,395.600 32.242,395.600 33.929 C 395.600 34.361,395.330 34.818,395.000 34.945 C 394.670 35.071,394.400 35.541,394.400 35.987 C 394.400 36.434,394.220 36.800,394.000 36.800 C 393.780 36.800,393.600 37.070,393.600 37.400 C 393.600 37.730,393.407 38.000,393.171 38.000 C 392.618 38.000,391.600 39.018,391.600 39.571 C 391.600 39.850,390.062 40.000,387.200 40.000 C 381.023 40.000,381.200 40.236,381.200 32.000 L 381.200 25.600 384.800 25.600 C 387.733 25.600,388.400 25.711,388.400 26.200 C 388.400 26.530,388.670 26.800,389.000 26.800 C 389.419 26.800,389.600 27.222,389.600 28.200 L 389.600 29.600 392.000 29.600 L 394.400 29.600 394.400 23.200 L 394.400 16.800 392.000 16.800 L 389.600 16.800 389.600 18.200 C 389.600 19.178,389.419 19.600,389.000 19.600 C 388.670 19.600,388.400 19.870,388.400 20.200 C 388.400 20.689,387.733 20.800,384.800 20.800 L 381.200 20.800 381.200 14.200 L 381.200 7.600 385.200 7.600 L 389.200 7.600 390.800 9.200 C 392.057 10.457,392.400 11.100,392.400 12.200 C 392.400 13.178,392.581 13.600,393.000 13.600 C 393.330 13.600,393.600 13.870,393.600 14.200 C 393.600 14.601,394.001 14.800,394.813 14.800 C 395.521 14.800,396.121 14.551,396.255 14.200 C 396.382 13.870,396.736 13.600,397.043 13.600 C 397.445 13.600,397.600 13.043,397.600 11.600 C 397.600 10.089,397.453 9.600,397.000 9.600 C 396.520 9.600,396.400 9.000,396.400 6.600 L 396.400 3.600 381.400 3.600 L 366.400 3.600 366.400 5.000 M22.000 8.000 C 22.000 8.220,22.630 8.400,23.400 8.400 C 24.378 8.400,24.800 8.581,24.800 9.000 C 24.800 9.330,25.070 9.600,25.400 9.600 C 25.730 9.600,26.000 9.780,26.000 10.000 C 26.000 10.220,26.450 10.400,27.000 10.400 C 27.800 10.400,28.000 10.600,28.000 11.400 C 28.000 11.950,28.180 12.400,28.400 12.400 C 28.620 12.400,28.800 12.670,28.800 13.000 C 28.800 13.330,29.070 13.600,29.400 13.600 C 29.773 13.600,30.000 13.978,30.000 14.600 C 30.000 15.150,30.180 15.600,30.400 15.600 C 30.620 15.600,30.800 16.236,30.800 17.013 C 30.800 17.899,31.023 18.511,31.400 18.655 C 31.889 18.843,32.000 19.805,32.000 23.843 C 32.000 27.983,31.901 28.800,31.400 28.800 C 30.967 28.800,30.800 29.244,30.800 30.400 C 30.800 31.280,30.620 32.000,30.400 32.000 C 30.180 32.000,30.000 32.450,30.000 33.000 C 30.000 33.550,29.807 34.000,29.571 34.000 C 29.018 34.000,28.000 35.018,28.000 35.571 C 28.000 35.807,27.807 36.000,27.571 36.000 C 27.018 36.000,26.000 37.018,26.000 37.571 C 26.000 37.807,25.730 38.000,25.400 38.000 C 25.070 38.000,24.800 38.180,24.800 38.400 C 24.800 38.620,24.350 38.800,23.800 38.800 C 23.178 38.800,22.800 39.027,22.800 39.400 C 22.800 40.668,17.436 40.204,16.014 38.813 L 14.800 37.627 14.800 23.197 C 14.800 12.222,14.920 8.630,15.300 8.198 C 15.892 7.526,22.000 7.346,22.000 8.000 M198.400 18.413 C 198.400 18.859,198.670 19.329,199.000 19.455 C 199.391 19.605,199.600 20.228,199.600 21.243 C 199.600 22.099,199.780 22.800,200.000 22.800 C 200.220 22.800,200.400 23.346,200.400 24.013 C 200.400 24.721,200.649 25.321,201.000 25.455 C 202.878 26.176,201.487 26.800,198.000 26.800 C 195.067 26.800,194.400 26.689,194.400 26.200 C 194.400 25.870,194.670 25.600,195.000 25.600 C 195.373 25.600,195.600 25.222,195.600 24.600 C 195.600 24.050,195.780 23.600,196.000 23.600 C 196.220 23.600,196.400 22.989,196.400 22.243 C 196.400 21.405,196.630 20.797,197.000 20.655 C 197.377 20.511,197.600 19.899,197.600 19.013 C 197.600 18.236,197.780 17.600,198.000 17.600 C 198.220 17.600,198.400 17.966,198.400 18.413 " stroke="none" fill="#ffffff" fill-rule="evenodd"></path><path id="path1" d="M62.000 24.200 L 62.000 48.400 65.000 48.400 L 68.000 48.400 68.000 24.200 L 68.000 0.000 65.000 0.000 L 62.000 0.000 62.000 24.200 M151.200 24.200 L 151.200 48.400 154.200 48.400 L 157.200 48.400 157.200 24.200 L 157.200 0.000 154.200 0.000 L 151.200 0.000 151.200 24.200 M242.800 24.200 L 242.800 48.400 245.800 48.400 L 248.800 48.400 248.800 24.200 L 248.800 0.000 245.800 0.000 L 242.800 0.000 242.800 24.200 M332.000 24.200 L 332.000 48.400 335.000 48.400 L 338.000 48.400 338.000 24.200 L 338.000 0.000 335.000 0.000 L 332.000 0.000 332.000 24.200 M95.600 8.622 L 95.600 15.644 97.500 15.522 C 99.382 15.401,99.401 15.386,99.524 13.900 C 99.592 13.075,99.817 12.400,100.024 12.400 C 100.231 12.400,100.400 11.969,100.400 11.443 C 100.400 10.916,100.670 10.382,101.000 10.255 C 101.330 10.129,101.600 9.659,101.600 9.213 C 101.600 8.612,101.862 8.400,102.600 8.400 C 103.150 8.400,103.600 8.220,103.600 8.000 C 103.600 7.774,104.733 7.600,106.200 7.600 L 108.800 7.600 108.800 23.000 C 108.800 40.179,108.829 40.000,106.000 40.000 C 105.340 40.000,104.800 40.180,104.800 40.400 C 104.800 40.620,104.530 40.800,104.200 40.800 C 103.767 40.800,103.600 41.244,103.600 42.400 L 103.600 44.000 114.200 44.000 L 124.800 44.000 124.800 42.400 C 124.800 41.244,124.633 40.800,124.200 40.800 C 123.870 40.800,123.600 40.620,123.600 40.400 C 123.600 40.180,122.700 40.000,121.600 40.000 C 119.733 40.000,119.600 39.933,119.600 39.000 C 119.600 38.450,119.420 38.000,119.200 38.000 C 118.940 38.000,118.800 32.667,118.800 22.800 L 118.800 7.600 121.800 7.600 C 123.533 7.600,124.800 7.769,124.800 8.000 C 124.800 8.220,125.070 8.400,125.400 8.400 C 125.730 8.400,126.000 8.593,126.000 8.829 C 126.000 9.382,127.018 10.400,127.571 10.400 C 127.807 10.400,128.000 11.120,128.000 12.000 C 128.000 12.880,128.180 13.600,128.400 13.600 C 128.620 13.600,128.800 14.050,128.800 14.600 C 128.800 15.533,128.933 15.600,130.800 15.600 L 132.800 15.600 132.800 12.824 C 132.800 11.297,132.620 9.936,132.400 9.800 C 132.177 9.662,132.000 7.796,132.000 5.576 L 132.000 1.600 130.146 1.600 C 128.682 1.600,128.097 1.810,127.365 2.600 L 126.438 3.600 114.252 3.600 C 101.919 3.600,99.615 3.333,99.603 1.900 C 99.601 1.735,98.700 1.600,97.600 1.600 L 95.600 1.600 95.600 8.622 M199.600 3.000 C 199.600 3.330,199.330 3.600,199.000 3.600 C 198.670 3.600,198.400 3.870,198.400 4.200 C 198.400 4.530,198.220 4.800,198.000 4.800 C 197.780 4.800,197.600 5.231,197.600 5.757 C 197.600 6.284,197.330 6.818,197.000 6.945 C 196.649 7.079,196.400 7.679,196.400 8.387 C 196.400 9.054,196.220 9.600,196.000 9.600 C 195.780 9.600,195.600 10.031,195.600 10.557 C 195.600 11.084,195.330 11.618,195.000 11.745 C 194.623 11.889,194.400 12.501,194.400 13.387 C 194.400 14.164,194.220 14.800,194.000 14.800 C 193.780 14.800,193.600 15.231,193.600 15.757 C 193.600 16.284,193.330 16.818,193.000 16.945 C 192.649 17.079,192.400 17.679,192.400 18.387 C 192.400 19.054,192.220 19.600,192.000 19.600 C 191.780 19.600,191.600 20.140,191.600 20.800 C 191.600 21.600,191.400 22.000,191.000 22.000 C 190.581 22.000,190.400 22.422,190.400 23.400 C 190.400 24.170,190.220 24.800,190.000 24.800 C 189.780 24.800,189.600 25.231,189.600 25.757 C 189.600 26.284,189.330 26.818,189.000 26.945 C 188.623 27.089,188.400 27.701,188.400 28.587 C 188.400 29.364,188.220 30.000,188.000 30.000 C 187.780 30.000,187.600 30.450,187.600 31.000 C 187.600 31.622,187.373 32.000,187.000 32.000 C 186.581 32.000,186.400 32.422,186.400 33.400 C 186.400 34.170,186.220 34.800,186.000 34.800 C 185.780 34.800,185.600 35.231,185.600 35.757 C 185.600 36.284,185.330 36.818,185.000 36.945 C 184.670 37.071,184.400 37.451,184.400 37.787 C 184.400 38.740,182.909 40.000,181.783 40.000 C 180.312 40.000,179.111 41.270,179.269 42.658 L 179.400 43.800 186.900 43.909 L 194.400 44.018 194.400 42.009 L 194.400 40.000 192.896 40.000 C 191.106 40.000,189.782 38.578,190.959 37.919 C 191.354 37.698,191.600 37.031,191.600 36.180 C 191.600 35.421,191.780 34.800,192.000 34.800 C 192.220 34.800,192.400 34.080,192.400 33.200 L 192.400 31.600 198.000 31.600 L 203.600 31.600 203.600 32.600 C 203.600 33.222,203.827 33.600,204.200 33.600 C 204.633 33.600,204.800 34.044,204.800 35.200 C 204.800 36.080,204.980 36.800,205.200 36.800 C 205.420 36.800,205.600 37.520,205.600 38.400 C 205.600 39.840,205.500 40.000,204.600 40.000 C 204.050 40.000,203.600 40.180,203.600 40.400 C 203.600 40.620,203.319 40.800,202.976 40.800 C 202.499 40.800,202.381 41.155,202.476 42.300 L 202.600 43.800 212.100 43.907 L 221.600 44.014 221.600 42.579 C 221.600 40.761,220.841 40.000,219.029 40.000 C 218.025 40.000,217.600 39.821,217.600 39.400 C 217.600 39.070,217.420 38.800,217.200 38.800 C 216.980 38.800,216.800 38.350,216.800 37.800 C 216.800 37.178,216.573 36.800,216.200 36.800 C 215.781 36.800,215.600 36.378,215.600 35.400 C 215.600 34.630,215.420 34.000,215.200 34.000 C 214.980 34.000,214.800 33.550,214.800 33.000 C 214.800 32.378,214.573 32.000,214.200 32.000 C 213.767 32.000,213.600 31.556,213.600 30.400 C 213.600 29.520,213.420 28.800,213.200 28.800 C 212.980 28.800,212.800 28.363,212.800 27.829 C 212.800 27.294,212.530 26.587,212.200 26.257 C 211.870 25.927,211.600 25.194,211.600 24.629 C 211.600 24.063,211.420 23.600,211.200 23.600 C 210.980 23.600,210.800 23.054,210.800 22.387 C 210.800 21.679,210.551 21.079,210.200 20.945 C 209.828 20.802,209.600 20.193,209.600 19.345 C 209.600 18.496,209.372 17.887,209.000 17.745 C 208.670 17.618,208.400 17.084,208.400 16.557 C 208.400 16.031,208.220 15.600,208.000 15.600 C 207.780 15.600,207.600 14.970,207.600 14.200 C 207.600 13.222,207.419 12.800,207.000 12.800 C 206.567 12.800,206.400 12.356,206.400 11.200 C 206.400 10.320,206.220 9.600,206.000 9.600 C 205.780 9.600,205.600 8.970,205.600 8.200 C 205.600 7.222,205.419 6.800,205.000 6.800 C 204.627 6.800,204.400 6.422,204.400 5.800 C 204.400 5.250,204.220 4.800,204.000 4.800 C 203.780 4.800,203.600 4.260,203.600 3.600 C 203.600 2.427,203.556 2.400,201.600 2.400 C 200.089 2.400,199.600 2.547,199.600 3.000 M0.478 5.500 C 0.599 7.382,0.614 7.401,2.100 7.524 C 2.925 7.592,3.600 7.817,3.600 8.024 C 3.600 8.231,3.870 8.400,4.200 8.400 C 4.723 8.400,4.800 10.333,4.800 23.400 C 4.800 39.993,4.799 40.000,2.171 40.000 C 0.748 40.000,-0.000 40.886,-0.000 42.571 L 0.000 44.000 12.800 44.000 C 23.911 44.000,25.600 43.921,25.600 43.400 C 25.600 42.947,26.089 42.800,27.600 42.800 C 28.700 42.800,29.600 42.620,29.600 42.400 C 29.600 42.180,30.056 42.000,30.613 42.000 C 31.169 42.000,31.729 41.730,31.855 41.400 C 31.982 41.070,32.381 40.794,32.743 40.787 C 33.572 40.771,34.800 39.857,34.800 39.256 C 34.800 39.005,35.250 38.800,35.800 38.800 C 36.366 38.800,36.800 38.569,36.800 38.268 C 36.800 37.975,37.250 37.494,37.800 37.200 C 38.428 36.864,38.800 36.318,38.800 35.732 C 38.800 35.170,39.038 34.800,39.400 34.800 C 39.773 34.800,40.000 34.422,40.000 33.800 C 40.000 33.250,40.180 32.800,40.400 32.800 C 40.620 32.800,40.800 32.350,40.800 31.800 C 40.800 31.178,41.027 30.800,41.400 30.800 C 41.853 30.800,42.000 30.311,42.000 28.800 C 42.000 27.700,42.180 26.800,42.400 26.800 C 42.643 26.800,42.800 25.000,42.800 22.200 C 42.800 19.400,42.643 17.600,42.400 17.600 C 42.180 17.600,42.000 16.970,42.000 16.200 C 42.000 15.222,41.819 14.800,41.400 14.800 C 41.027 14.800,40.800 14.422,40.800 13.800 C 40.800 13.250,40.620 12.800,40.400 12.800 C 40.180 12.800,40.000 12.350,40.000 11.800 C 40.000 11.178,39.773 10.800,39.400 10.800 C 39.070 10.800,38.800 10.607,38.800 10.371 C 38.800 9.818,37.782 8.800,37.229 8.800 C 36.993 8.800,36.800 8.607,36.800 8.371 C 36.800 7.666,35.714 6.800,34.829 6.800 C 34.359 6.800,34.000 6.540,34.000 6.200 C 34.000 5.827,33.622 5.600,33.000 5.600 C 32.450 5.600,32.000 5.420,32.000 5.200 C 32.000 4.980,31.280 4.800,30.400 4.800 C 29.244 4.800,28.800 4.633,28.800 4.200 C 28.800 3.678,26.953 3.600,14.578 3.600 L 0.356 3.600 0.478 5.500 M272.400 5.000 C 272.400 5.770,272.580 6.400,272.800 6.400 C 273.020 6.400,273.200 6.670,273.200 7.000 C 273.200 7.433,273.644 7.600,274.800 7.600 C 275.680 7.600,276.400 7.780,276.400 8.000 C 276.400 8.220,276.850 8.400,277.400 8.400 C 278.022 8.400,278.400 8.627,278.400 9.000 C 278.400 9.330,278.560 9.600,278.757 9.600 C 278.953 9.600,279.226 10.050,279.364 10.600 C 279.502 11.150,279.792 11.600,280.008 11.600 C 280.223 11.600,280.400 11.870,280.400 12.200 C 280.400 12.530,280.580 12.800,280.800 12.800 C 281.020 12.800,281.200 13.027,281.200 13.304 C 281.200 13.581,281.650 14.293,282.200 14.887 C 282.750 15.480,283.200 16.333,283.200 16.783 C 283.200 17.243,283.462 17.600,283.800 17.600 C 284.173 17.600,284.400 17.978,284.400 18.600 C 284.400 19.222,284.627 19.600,285.000 19.600 C 285.330 19.600,285.600 19.870,285.600 20.200 C 285.600 20.530,285.780 20.800,286.000 20.800 C 286.220 20.800,286.400 21.250,286.400 21.800 C 286.400 22.385,286.630 22.800,286.953 22.800 C 287.868 22.800,288.014 24.796,287.153 25.533 C 286.739 25.888,286.400 26.498,286.400 26.889 C 286.400 27.280,286.220 27.600,286.000 27.600 C 285.780 27.600,285.600 27.870,285.600 28.200 C 285.600 28.530,285.330 28.800,285.000 28.800 C 284.670 28.800,284.400 29.070,284.400 29.400 C 284.400 29.730,284.232 30.000,284.027 30.000 C 283.822 30.000,283.529 30.394,283.376 30.875 C 283.224 31.356,282.492 32.322,281.749 33.022 C 281.007 33.722,280.400 34.678,280.400 35.147 C 280.400 35.616,280.207 36.000,279.971 36.000 C 279.418 36.000,278.400 37.018,278.400 37.571 C 278.400 37.807,278.130 38.000,277.800 38.000 C 277.470 38.000,277.200 38.180,277.200 38.400 C 277.200 38.620,276.834 38.800,276.387 38.800 C 275.941 38.800,275.471 39.070,275.345 39.400 C 275.203 39.770,274.595 40.000,273.757 40.000 C 273.011 40.000,272.400 40.180,272.400 40.400 C 272.400 40.620,272.119 40.800,271.776 40.800 C 271.299 40.800,271.181 41.155,271.276 42.300 L 271.400 43.800 279.900 43.908 L 288.400 44.016 288.400 42.408 C 288.400 41.245,288.234 40.800,287.800 40.800 C 287.470 40.800,287.200 40.620,287.200 40.400 C 287.200 40.180,286.570 40.000,285.800 40.000 C 284.822 40.000,284.400 39.819,284.400 39.400 C 284.400 39.070,284.580 38.800,284.800 38.800 C 285.020 38.800,285.200 38.350,285.200 37.800 C 285.200 37.178,285.427 36.800,285.800 36.800 C 286.130 36.800,286.400 36.530,286.400 36.200 C 286.400 35.870,286.580 35.600,286.800 35.600 C 287.020 35.600,287.200 35.150,287.200 34.600 C 287.200 33.978,287.427 33.600,287.800 33.600 C 288.140 33.600,288.400 33.241,288.400 32.771 C 288.400 31.886,289.266 30.800,289.971 30.800 C 290.207 30.800,290.400 30.350,290.400 29.800 C 290.400 29.178,290.627 28.800,291.000 28.800 C 291.373 28.800,291.600 29.178,291.600 29.800 C 291.600 30.350,291.780 30.800,292.000 30.800 C 292.220 30.800,292.400 31.166,292.400 31.613 C 292.400 32.059,292.670 32.529,293.000 32.655 C 293.330 32.782,293.606 33.181,293.613 33.543 C 293.629 34.372,294.543 35.600,295.144 35.600 C 295.395 35.600,295.600 36.039,295.600 36.576 C 295.600 37.113,295.780 37.664,296.000 37.800 C 296.792 38.289,296.458 40.000,295.571 40.000 C 294.338 40.000,293.600 40.965,293.600 42.578 L 293.600 44.013 304.100 43.907 L 314.600 43.800 314.733 42.859 C 315.030 40.763,314.507 40.000,312.773 40.000 C 311.568 40.000,310.928 39.748,310.235 39.000 C 309.725 38.450,309.104 38.000,308.854 38.000 C 308.604 38.000,308.400 37.807,308.400 37.571 C 308.400 37.018,307.382 36.000,306.829 36.000 C 306.593 36.000,306.400 35.550,306.400 35.000 C 306.400 34.450,306.220 34.000,306.000 34.000 C 305.780 34.000,305.600 33.730,305.600 33.400 C 305.600 33.070,305.330 32.800,305.000 32.800 C 304.627 32.800,304.400 32.422,304.400 31.800 C 304.400 31.250,304.220 30.800,304.000 30.800 C 303.780 30.800,303.600 30.434,303.600 29.987 C 303.600 29.541,303.330 29.071,303.000 28.945 C 302.670 28.818,302.400 28.464,302.400 28.157 C 302.400 27.851,302.220 27.600,302.000 27.600 C 301.780 27.600,301.600 27.265,301.600 26.856 C 301.600 26.447,301.150 25.774,300.600 25.361 C 300.049 24.947,299.600 24.204,299.600 23.705 C 299.600 23.167,299.357 22.800,299.000 22.800 C 298.627 22.800,298.400 22.422,298.400 21.800 C 298.400 21.250,298.220 20.800,298.000 20.800 C 297.780 20.800,297.600 20.530,297.600 20.200 C 297.600 19.870,297.780 19.600,298.000 19.600 C 298.220 19.600,298.400 19.330,298.400 19.000 C 298.400 18.670,298.670 18.400,299.000 18.400 C 299.333 18.400,299.600 18.044,299.600 17.600 C 299.600 17.160,299.780 16.800,300.000 16.800 C 300.220 16.800,300.400 16.530,300.400 16.200 C 300.400 15.870,300.670 15.600,301.000 15.600 C 301.330 15.600,301.600 15.330,301.600 15.000 C 301.600 14.670,301.780 14.400,302.000 14.400 C 302.220 14.400,302.400 14.040,302.400 13.600 C 302.400 13.156,302.667 12.800,303.000 12.800 C 303.330 12.800,303.600 12.530,303.600 12.200 C 303.600 11.870,303.780 11.600,304.000 11.600 C 304.220 11.600,304.400 11.330,304.400 11.000 C 304.400 10.670,304.593 10.400,304.829 10.400 C 305.382 10.400,306.400 9.382,306.400 8.829 C 306.400 8.593,306.850 8.400,307.400 8.400 C 307.950 8.400,308.400 8.220,308.400 8.000 C 308.400 7.780,309.120 7.600,310.000 7.600 C 311.156 7.600,311.600 7.433,311.600 7.000 C 311.600 6.670,311.870 6.400,312.200 6.400 C 312.619 6.400,312.800 5.978,312.800 5.000 L 312.800 3.600 304.578 3.600 L 296.356 3.600 296.478 5.500 C 296.599 7.382,296.614 7.401,298.100 7.524 C 299.419 7.633,300.432 8.800,299.208 8.800 C 298.992 8.800,298.702 9.250,298.564 9.800 C 298.426 10.350,298.153 10.800,297.957 10.800 C 297.760 10.800,297.600 11.250,297.600 11.800 C 297.600 12.350,297.395 12.800,297.144 12.800 C 296.529 12.800,295.628 14.035,295.613 14.900 C 295.584 16.454,292.400 13.962,292.400 12.386 C 292.400 11.954,292.220 11.600,292.000 11.600 C 291.780 11.600,291.600 11.343,291.600 11.029 C 291.600 10.714,291.363 10.219,291.072 9.929 C 289.966 8.820,290.000 7.655,291.143 7.522 C 292.100 7.412,292.212 7.219,292.322 5.500 L 292.444 3.600 282.422 3.600 L 272.400 3.600 272.400 5.000 M366.400 5.000 C 366.400 5.770,366.580 6.400,366.800 6.400 C 367.020 6.400,367.200 6.670,367.200 7.000 C 367.200 7.421,367.625 7.600,368.629 7.600 C 371.273 7.600,371.200 7.141,371.200 23.771 C 371.200 33.524,371.060 38.800,370.800 38.800 C 370.580 38.800,370.400 39.070,370.400 39.400 C 370.400 39.833,369.956 40.000,368.800 40.000 C 367.920 40.000,367.200 40.180,367.200 40.400 C 367.200 40.620,366.750 40.800,366.200 40.800 C 365.300 40.800,365.200 40.960,365.200 42.400 L 365.200 44.000 381.800 44.000 L 398.400 44.000 398.400 42.443 C 398.400 41.508,398.615 40.803,398.938 40.679 C 399.662 40.401,400.196 33.318,399.551 32.541 C 398.467 31.235,395.600 32.242,395.600 33.929 C 395.600 34.361,395.330 34.818,395.000 34.945 C 394.670 35.071,394.400 35.541,394.400 35.987 C 394.400 36.434,394.220 36.800,394.000 36.800 C 393.780 36.800,393.600 37.070,393.600 37.400 C 393.600 37.730,393.407 38.000,393.171 38.000 C 392.618 38.000,391.600 39.018,391.600 39.571 C 391.600 39.850,390.062 40.000,387.200 40.000 C 381.023 40.000,381.200 40.236,381.200 32.000 L 381.200 25.600 384.800 25.600 C 387.733 25.600,388.400 25.711,388.400 26.200 C 388.400 26.530,388.670 26.800,389.000 26.800 C 389.419 26.800,389.600 27.222,389.600 28.200 L 389.600 29.600 392.000 29.600 L 394.400 29.600 394.400 23.200 L 394.400 16.800 392.000 16.800 L 389.600 16.800 389.600 18.200 C 389.600 19.178,389.419 19.600,389.000 19.600 C 388.670 19.600,388.400 19.870,388.400 20.200 C 388.400 20.689,387.733 20.800,384.800 20.800 L 381.200 20.800 381.200 14.200 L 381.200 7.600 385.200 7.600 L 389.200 7.600 390.800 9.200 C 392.057 10.457,392.400 11.100,392.400 12.200 C 392.400 13.178,392.581 13.600,393.000 13.600 C 393.330 13.600,393.600 13.870,393.600 14.200 C 393.600 14.601,394.001 14.800,394.813 14.800 C 395.521 14.800,396.121 14.551,396.255 14.200 C 396.382 13.870,396.736 13.600,397.043 13.600 C 397.445 13.600,397.600 13.043,397.600 11.600 C 397.600 10.089,397.453 9.600,397.000 9.600 C 396.520 9.600,396.400 9.000,396.400 6.600 L 396.400 3.600 381.400 3.600 L 366.400 3.600 366.400 5.000 M22.000 8.000 C 22.000 8.220,22.630 8.400,23.400 8.400 C 24.378 8.400,24.800 8.581,24.800 9.000 C 24.800 9.330,25.070 9.600,25.400 9.600 C 25.730 9.600,26.000 9.780,26.000 10.000 C 26.000 10.220,26.450 10.400,27.000 10.400 C 27.800 10.400,28.000 10.600,28.000 11.400 C 28.000 11.950,28.180 12.400,28.400 12.400 C 28.620 12.400,28.800 12.670,28.800 13.000 C 28.800 13.330,29.070 13.600,29.400 13.600 C 29.773 13.600,30.000 13.978,30.000 14.600 C 30.000 15.150,30.180 15.600,30.400 15.600 C 30.620 15.600,30.800 16.236,30.800 17.013 C 30.800 17.899,31.023 18.511,31.400 18.655 C 31.889 18.843,32.000 19.805,32.000 23.843 C 32.000 27.983,31.901 28.800,31.400 28.800 C 30.967 28.800,30.800 29.244,30.800 30.400 C 30.800 31.280,30.620 32.000,30.400 32.000 C 30.180 32.000,30.000 32.450,30.000 33.000 C 30.000 33.550,29.807 34.000,29.571 34.000 C 29.018 34.000,28.000 35.018,28.000 35.571 C 28.000 35.807,27.807 36.000,27.571 36.000 C 27.018 36.000,26.000 37.018,26.000 37.571 C 26.000 37.807,25.730 38.000,25.400 38.000 C 25.070 38.000,24.800 38.180,24.800 38.400 C 24.800 38.620,24.350 38.800,23.800 38.800 C 23.178 38.800,22.800 39.027,22.800 39.400 C 22.800 40.668,17.436 40.204,16.014 38.813 L 14.800 37.627 14.800 23.197 C 14.800 12.222,14.920 8.630,15.300 8.198 C 15.892 7.526,22.000 7.346,22.000 8.000 M198.400 18.413 C 198.400 18.859,198.670 19.329,199.000 19.455 C 199.391 19.605,199.600 20.228,199.600 21.243 C 199.600 22.099,199.780 22.800,200.000 22.800 C 200.220 22.800,200.400 23.346,200.400 24.013 C 200.400 24.721,200.649 25.321,201.000 25.455 C 202.878 26.176,201.487 26.800,198.000 26.800 C 195.067 26.800,194.400 26.689,194.400 26.200 C 194.400 25.870,194.670 25.600,195.000 25.600 C 195.373 25.600,195.600 25.222,195.600 24.600 C 195.600 24.050,195.780 23.600,196.000 23.600 C 196.220 23.600,196.400 22.989,196.400 22.243 C 196.400 21.405,196.630 20.797,197.000 20.655 C 197.377 20.511,197.600 19.899,197.600 19.013 C 197.600 18.236,197.780 17.600,198.000 17.600 C 198.220 17.600,198.400 17.966,198.400 18.413 " stroke="none" fill="#ffffff" fill-rule="evenodd"></path><path id="path2" d="M62.000 24.200 L 62.000 48.400 65.000 48.400 L 68.000 48.400 68.000 24.200 L 68.000 0.000 65.000 0.000 L 62.000 0.000 62.000 24.200 M151.200 24.200 L 151.200 48.400 154.200 48.400 L 157.200 48.400 157.200 24.200 L 157.200 0.000 154.200 0.000 L 151.200 0.000 151.200 24.200 M242.800 24.200 L 242.800 48.400 245.800 48.400 L 248.800 48.400 248.800 24.200 L 248.800 0.000 245.800 0.000 L 242.800 0.000 242.800 24.200 M332.000 24.200 L 332.000 48.400 335.000 48.400 L 338.000 48.400 338.000 24.200 L 338.000 0.000 335.000 0.000 L 332.000 0.000 332.000 24.200 M95.600 8.622 L 95.600 15.644 97.500 15.522 C 99.382 15.401,99.401 15.386,99.524 13.900 C 99.592 13.075,99.817 12.400,100.024 12.400 C 100.231 12.400,100.400 11.969,100.400 11.443 C 100.400 10.916,100.670 10.382,101.000 10.255 C 101.330 10.129,101.600 9.659,101.600 9.213 C 101.600 8.612,101.862 8.400,102.600 8.400 C 103.150 8.400,103.600 8.220,103.600 8.000 C 103.600 7.774,104.733 7.600,106.200 7.600 L 108.800 7.600 108.800 23.000 C 108.800 40.179,108.829 40.000,106.000 40.000 C 105.340 40.000,104.800 40.180,104.800 40.400 C 104.800 40.620,104.530 40.800,104.200 40.800 C 103.767 40.800,103.600 41.244,103.600 42.400 L 103.600 44.000 114.200 44.000 L 124.800 44.000 124.800 42.400 C 124.800 41.244,124.633 40.800,124.200 40.800 C 123.870 40.800,123.600 40.620,123.600 40.400 C 123.600 40.180,122.700 40.000,121.600 40.000 C 119.733 40.000,119.600 39.933,119.600 39.000 C 119.600 38.450,119.420 38.000,119.200 38.000 C 118.940 38.000,118.800 32.667,118.800 22.800 L 118.800 7.600 121.800 7.600 C 123.533 7.600,124.800 7.769,124.800 8.000 C 124.800 8.220,125.070 8.400,125.400 8.400 C 125.730 8.400,126.000 8.593,126.000 8.829 C 126.000 9.382,127.018 10.400,127.571 10.400 C 127.807 10.400,128.000 11.120,128.000 12.000 C 128.000 12.880,128.180 13.600,128.400 13.600 C 128.620 13.600,128.800 14.050,128.800 14.600 C 128.800 15.533,128.933 15.600,130.800 15.600 L 132.800 15.600 132.800 12.824 C 132.800 11.297,132.620 9.936,132.400 9.800 C 132.177 9.662,132.000 7.796,132.000 5.576 L 132.000 1.600 130.146 1.600 C 128.682 1.600,128.097 1.810,127.365 2.600 L 126.438 3.600 114.252 3.600 C 101.919 3.600,99.615 3.333,99.603 1.900 C 99.601 1.735,98.700 1.600,97.600 1.600 L 95.600 1.600 95.600 8.622 M199.600 3.000 C 199.600 3.330,199.330 3.600,199.000 3.600 C 198.670 3.600,198.400 3.870,198.400 4.200 C 198.400 4.530,198.220 4.800,198.000 4.800 C 197.780 4.800,197.600 5.231,197.600 5.757 C 197.600 6.284,197.330 6.818,197.000 6.945 C 196.649 7.079,196.400 7.679,196.400 8.387 C 196.400 9.054,196.220 9.600,196.000 9.600 C 195.780 9.600,195.600 10.031,195.600 10.557 C 195.600 11.084,195.330 11.618,195.000 11.745 C 194.623 11.889,194.400 12.501,194.400 13.387 C 194.400 14.164,194.220 14.800,194.000 14.800 C 193.780 14.800,193.600 15.231,193.600 15.757 C 193.600 16.284,193.330 16.818,193.000 16.945 C 192.649 17.079,192.400 17.679,192.400 18.387 C 192.400 19.054,192.220 19.600,192.000 19.600 C 191.780 19.600,191.600 20.140,191.600 20.800 C 191.600 21.600,191.400 22.000,191.000 22.000 C 190.581 22.000,190.400 22.422,190.400 23.400 C 190.400 24.170,190.220 24.800,190.000 24.800 C 189.780 24.800,189.600 25.231,189.600 25.757 C 189.600 26.284,189.330 26.818,189.000 26.945 C 188.623 27.089,188.400 27.701,188.400 28.587 C 188.400 29.364,188.220 30.000,188.000 30.000 C 187.780 30.000,187.600 30.450,187.600 31.000 C 187.600 31.622,187.373 32.000,187.000 32.000 C 186.581 32.000,186.400 32.422,186.400 33.400 C 186.400 34.170,186.220 34.800,186.000 34.800 C 185.780 34.800,185.600 35.231,185.600 35.757 C 185.600 36.284,185.330 36.818,185.000 36.945 C 184.670 37.071,184.400 37.451,184.400 37.787 C 184.400 38.740,182.909 40.000,181.783 40.000 C 180.312 40.000,179.111 41.270,179.269 42.658 L 179.400 43.800 186.900 43.909 L 194.400 44.018 194.400 42.009 L 194.400 40.000 192.896 40.000 C 191.106 40.000,189.782 38.578,190.959 37.919 C 191.354 37.698,191.600 37.031,191.600 36.180 C 191.600 35.421,191.780 34.800,192.000 34.800 C 192.220 34.800,192.400 34.080,192.400 33.200 L 192.400 31.600 198.000 31.600 L 203.600 31.600 203.600 32.600 C 203.600 33.222,203.827 33.600,204.200 33.600 C 204.633 33.600,204.800 34.044,204.800 35.200 C 204.800 36.080,204.980 36.800,205.200 36.800 C 205.420 36.800,205.600 37.520,205.600 38.400 C 205.600 39.840,205.500 40.000,204.600 40.000 C 204.050 40.000,203.600 40.180,203.600 40.400 C 203.600 40.620,203.319 40.800,202.976 40.800 C 202.499 40.800,202.381 41.155,202.476 42.300 L 202.600 43.800 212.100 43.907 L 221.600 44.014 221.600 42.579 C 221.600 40.761,220.841 40.000,219.029 40.000 C 218.025 40.000,217.600 39.821,217.600 39.400 C 217.600 39.070,217.420 38.800,217.200 38.800 C 216.980 38.800,216.800 38.350,216.800 37.800 C 216.800 37.178,216.573 36.800,216.200 36.800 C 215.781 36.800,215.600 36.378,215.600 35.400 C 215.600 34.630,215.420 34.000,215.200 34.000 C 214.980 34.000,214.800 33.550,214.800 33.000 C 214.800 32.378,214.573 32.000,214.200 32.000 C 213.767 32.000,213.600 31.556,213.600 30.400 C 213.600 29.520,213.420 28.800,213.200 28.800 C 212.980 28.800,212.800 28.363,212.800 27.829 C 212.800 27.294,212.530 26.587,212.200 26.257 C 211.870 25.927,211.600 25.194,211.600 24.629 C 211.600 24.063,211.420 23.600,211.200 23.600 C 210.980 23.600,210.800 23.054,210.800 22.387 C 210.800 21.679,210.551 21.079,210.200 20.945 C 209.828 20.802,209.600 20.193,209.600 19.345 C 209.600 18.496,209.372 17.887,209.000 17.745 C 208.670 17.618,208.400 17.084,208.400 16.557 C 208.400 16.031,208.220 15.600,208.000 15.600 C 207.780 15.600,207.600 14.970,207.600 14.200 C 207.600 13.222,207.419 12.800,207.000 12.800 C 206.567 12.800,206.400 12.356,206.400 11.200 C 206.400 10.320,206.220 9.600,206.000 9.600 C 205.780 9.600,205.600 8.970,205.600 8.200 C 205.600 7.222,205.419 6.800,205.000 6.800 C 204.627 6.800,204.400 6.422,204.400 5.800 C 204.400 5.250,204.220 4.800,204.000 4.800 C 203.780 4.800,203.600 4.260,203.600 3.600 C 203.600 2.427,203.556 2.400,201.600 2.400 C 200.089 2.400,199.600 2.547,199.600 3.000 M0.478 5.500 C 0.599 7.382,0.614 7.401,2.100 7.524 C 2.925 7.592,3.600 7.817,3.600 8.024 C 3.600 8.231,3.870 8.400,4.200 8.400 C 4.723 8.400,4.800 10.333,4.800 23.400 C 4.800 39.993,4.799 40.000,2.171 40.000 C 0.748 40.000,-0.000 40.886,-0.000 42.571 L 0.000 44.000 12.800 44.000 C 23.911 44.000,25.600 43.921,25.600 43.400 C 25.600 42.947,26.089 42.800,27.600 42.800 C 28.700 42.800,29.600 42.620,29.600 42.400 C 29.600 42.180,30.056 42.000,30.613 42.000 C 31.169 42.000,31.729 41.730,31.855 41.400 C 31.982 41.070,32.381 40.794,32.743 40.787 C 33.572 40.771,34.800 39.857,34.800 39.256 C 34.800 39.005,35.250 38.800,35.800 38.800 C 36.366 38.800,36.800 38.569,36.800 38.268 C 36.800 37.975,37.250 37.494,37.800 37.200 C 38.428 36.864,38.800 36.318,38.800 35.732 C 38.800 35.170,39.038 34.800,39.400 34.800 C 39.773 34.800,40.000 34.422,40.000 33.800 C 40.000 33.250,40.180 32.800,40.400 32.800 C 40.620 32.800,40.800 32.350,40.800 31.800 C 40.800 31.178,41.027 30.800,41.400 30.800 C 41.853 30.800,42.000 30.311,42.000 28.800 C 42.000 27.700,42.180 26.800,42.400 26.800 C 42.643 26.800,42.800 25.000,42.800 22.200 C 42.800 19.400,42.643 17.600,42.400 17.600 C 42.180 17.600,42.000 16.970,42.000 16.200 C 42.000 15.222,41.819 14.800,41.400 14.800 C 41.027 14.800,40.800 14.422,40.800 13.800 C 40.800 13.250,40.620 12.800,40.400 12.800 C 40.180 12.800,40.000 12.350,40.000 11.800 C 40.000 11.178,39.773 10.800,39.400 10.800 C 39.070 10.800,38.800 10.607,38.800 10.371 C 38.800 9.818,37.782 8.800,37.229 8.800 C 36.993 8.800,36.800 8.607,36.800 8.371 C 36.800 7.666,35.714 6.800,34.829 6.800 C 34.359 6.800,34.000 6.540,34.000 6.200 C 34.000 5.827,33.622 5.600,33.000 5.600 C 32.450 5.600,32.000 5.420,32.000 5.200 C 32.000 4.980,31.280 4.800,30.400 4.800 C 29.244 4.800,28.800 4.633,28.800 4.200 C 28.800 3.678,26.953 3.600,14.578 3.600 L 0.356 3.600 0.478 5.500 M272.400 5.000 C 272.400 5.770,272.580 6.400,272.800 6.400 C 273.020 6.400,273.200 6.670,273.200 7.000 C 273.200 7.433,273.644 7.600,274.800 7.600 C 275.680 7.600,276.400 7.780,276.400 8.000 C 276.400 8.220,276.850 8.400,277.400 8.400 C 278.022 8.400,278.400 8.627,278.400 9.000 C 278.400 9.330,278.560 9.600,278.757 9.600 C 278.953 9.600,279.226 10.050,279.364 10.600 C 279.502 11.150,279.792 11.600,280.008 11.600 C 280.223 11.600,280.400 11.870,280.400 12.200 C 280.400 12.530,280.580 12.800,280.800 12.800 C 281.020 12.800,281.200 13.027,281.200 13.304 C 281.200 13.581,281.650 14.293,282.200 14.887 C 282.750 15.480,283.200 16.333,283.200 16.783 C 283.200 17.243,283.462 17.600,283.800 17.600 C 284.173 17.600,284.400 17.978,284.400 18.600 C 284.400 19.222,284.627 19.600,285.000 19.600 C 285.330 19.600,285.600 19.870,285.600 20.200 C 285.600 20.530,285.780 20.800,286.000 20.800 C 286.220 20.800,286.400 21.250,286.400 21.800 C 286.400 22.385,286.630 22.800,286.953 22.800 C 287.868 22.800,288.014 24.796,287.153 25.533 C 286.739 25.888,286.400 26.498,286.400 26.889 C 286.400 27.280,286.220 27.600,286.000 27.600 C 285.780 27.600,285.600 27.870,285.600 28.200 C 285.600 28.530,285.330 28.800,285.000 28.800 C 284.670 28.800,284.400 29.070,284.400 29.400 C 284.400 29.730,284.232 30.000,284.027 30.000 C 283.822 30.000,283.529 30.394,283.376 30.875 C 283.224 31.356,282.492 32.322,281.749 33.022 C 281.007 33.722,280.400 34.678,280.400 35.147 C 280.400 35.616,280.207 36.000,279.971 36.000 C 279.418 36.000,278.400 37.018,278.400 37.571 C 278.400 37.807,278.130 38.000,277.800 38.000 C 277.470 38.000,277.200 38.180,277.200 38.400 C 277.200 38.620,276.834 38.800,276.387 38.800 C 275.941 38.800,275.471 39.070,275.345 39.400 C 275.203 39.770,274.595 40.000,273.757 40.000 C 273.011 40.000,272.400 40.180,272.400 40.400 C 272.400 40.620,272.119 40.800,271.776 40.800 C 271.299 40.800,271.181 41.155,271.276 42.300 L 271.400 43.800 279.900 43.908 L 288.400 44.016 288.400 42.408 C 288.400 41.245,288.234 40.800,287.800 40.800 C 287.470 40.800,287.200 40.620,287.200 40.400 C 287.200 40.180,286.570 40.000,285.800 40.000 C 284.822 40.000,284.400 39.819,284.400 39.400 C 284.400 39.070,284.580 38.800,284.800 38.800 C 285.020 38.800,285.200 38.350,285.200 37.800 C 285.200 37.178,285.427 36.800,285.800 36.800 C 286.130 36.800,286.400 36.530,286.400 36.200 C 286.400 35.870,286.580 35.600,286.800 35.600 C 287.020 35.600,287.200 35.150,287.200 34.600 C 287.200 33.978,287.427 33.600,287.800 33.600 C 288.140 33.600,288.400 33.241,288.400 32.771 C 288.400 31.886,289.266 30.800,289.971 30.800 C 290.207 30.800,290.400 30.350,290.400 29.800 C 290.400 29.178,290.627 28.800,291.000 28.800 C 291.373 28.800,291.600 29.178,291.600 29.800 C 291.600 30.350,291.780 30.800,292.000 30.800 C 292.220 30.800,292.400 31.166,292.400 31.613 C 292.400 32.059,292.670 32.529,293.000 32.655 C 293.330 32.782,293.606 33.181,293.613 33.543 C 293.629 34.372,294.543 35.600,295.144 35.600 C 295.395 35.600,295.600 36.039,295.600 36.576 C 295.600 37.113,295.780 37.664,296.000 37.800 C 296.792 38.289,296.458 40.000,295.571 40.000 C 294.338 40.000,293.600 40.965,293.600 42.578 L 293.600 44.013 304.100 43.907 L 314.600 43.800 314.733 42.859 C 315.030 40.763,314.507 40.000,312.773 40.000 C 311.568 40.000,310.928 39.748,310.235 39.000 C 309.725 38.450,309.104 38.000,308.854 38.000 C 308.604 38.000,308.400 37.807,308.400 37.571 C 308.400 37.018,307.382 36.000,306.829 36.000 C 306.593 36.000,306.400 35.550,306.400 35.000 C 306.400 34.450,306.220 34.000,306.000 34.000 C 305.780 34.000,305.600 33.730,305.600 33.400 C 305.600 33.070,305.330 32.800,305.000 32.800 C 304.627 32.800,304.400 32.422,304.400 31.800 C 304.400 31.250,304.220 30.800,304.000 30.800 C 303.780 30.800,303.600 30.434,303.600 29.987 C 303.600 29.541,303.330 29.071,303.000 28.945 C 302.670 28.818,302.400 28.464,302.400 28.157 C 302.400 27.851,302.220 27.600,302.000 27.600 C 301.780 27.600,301.600 27.265,301.600 26.856 C 301.600 26.447,301.150 25.774,300.600 25.361 C 300.049 24.947,299.600 24.204,299.600 23.705 C 299.600 23.167,299.357 22.800,299.000 22.800 C 298.627 22.800,298.400 22.422,298.400 21.800 C 298.400 21.250,298.220 20.800,298.000 20.800 C 297.780 20.800,297.600 20.530,297.600 20.200 C 297.600 19.870,297.780 19.600,298.000 19.600 C 298.220 19.600,298.400 19.330,298.400 19.000 C 298.400 18.670,298.670 18.400,299.000 18.400 C 299.333 18.400,299.600 18.044,299.600 17.600 C 299.600 17.160,299.780 16.800,300.000 16.800 C 300.220 16.800,300.400 16.530,300.400 16.200 C 300.400 15.870,300.670 15.600,301.000 15.600 C 301.330 15.600,301.600 15.330,301.600 15.000 C 301.600 14.670,301.780 14.400,302.000 14.400 C 302.220 14.400,302.400 14.040,302.400 13.600 C 302.400 13.156,302.667 12.800,303.000 12.800 C 303.330 12.800,303.600 12.530,303.600 12.200 C 303.600 11.870,303.780 11.600,304.000 11.600 C 304.220 11.600,304.400 11.330,304.400 11.000 C 304.400 10.670,304.593 10.400,304.829 10.400 C 305.382 10.400,306.400 9.382,306.400 8.829 C 306.400 8.593,306.850 8.400,307.400 8.400 C 307.950 8.400,308.400 8.220,308.400 8.000 C 308.400 7.780,309.120 7.600,310.000 7.600 C 311.156 7.600,311.600 7.433,311.600 7.000 C 311.600 6.670,311.870 6.400,312.200 6.400 C 312.619 6.400,312.800 5.978,312.800 5.000 L 312.800 3.600 304.578 3.600 L 296.356 3.600 296.478 5.500 C 296.599 7.382,296.614 7.401,298.100 7.524 C 299.419 7.633,300.432 8.800,299.208 8.800 C 298.992 8.800,298.702 9.250,298.564 9.800 C 298.426 10.350,298.153 10.800,297.957 10.800 C 297.760 10.800,297.600 11.250,297.600 11.800 C 297.600 12.350,297.395 12.800,297.144 12.800 C 296.529 12.800,295.628 14.035,295.613 14.900 C 295.584 16.454,292.400 13.962,292.400 12.386 C 292.400 11.954,292.220 11.600,292.000 11.600 C 291.780 11.600,291.600 11.343,291.600 11.029 C 291.600 10.714,291.363 10.219,291.072 9.929 C 289.966 8.820,290.000 7.655,291.143 7.522 C 292.100 7.412,292.212 7.219,292.322 5.500 L 292.444 3.600 282.422 3.600 L 272.400 3.600 272.400 5.000 M366.400 5.000 C 366.400 5.770,366.580 6.400,366.800 6.400 C 367.020 6.400,367.200 6.670,367.200 7.000 C 367.200 7.421,367.625 7.600,368.629 7.600 C 371.273 7.600,371.200 7.141,371.200 23.771 C 371.200 33.524,371.060 38.800,370.800 38.800 C 370.580 38.800,370.400 39.070,370.400 39.400 C 370.400 39.833,369.956 40.000,368.800 40.000 C 367.920 40.000,367.200 40.180,367.200 40.400 C 367.200 40.620,366.750 40.800,366.200 40.800 C 365.300 40.800,365.200 40.960,365.200 42.400 L 365.200 44.000 381.800 44.000 L 398.400 44.000 398.400 42.443 C 398.400 41.508,398.615 40.803,398.938 40.679 C 399.662 40.401,400.196 33.318,399.551 32.541 C 398.467 31.235,395.600 32.242,395.600 33.929 C 395.600 34.361,395.330 34.818,395.000 34.945 C 394.670 35.071,394.400 35.541,394.400 35.987 C 394.400 36.434,394.220 36.800,394.000 36.800 C 393.780 36.800,393.600 37.070,393.600 37.400 C 393.600 37.730,393.407 38.000,393.171 38.000 C 392.618 38.000,391.600 39.018,391.600 39.571 C 391.600 39.850,390.062 40.000,387.200 40.000 C 381.023 40.000,381.200 40.236,381.200 32.000 L 381.200 25.600 384.800 25.600 C 387.733 25.600,388.400 25.711,388.400 26.200 C 388.400 26.530,388.670 26.800,389.000 26.800 C 389.419 26.800,389.600 27.222,389.600 28.200 L 389.600 29.600 392.000 29.600 L 394.400 29.600 394.400 23.200 L 394.400 16.800 392.000 16.800 L 389.600 16.800 389.600 18.200 C 389.600 19.178,389.419 19.600,389.000 19.600 C 388.670 19.600,388.400 19.870,388.400 20.200 C 388.400 20.689,387.733 20.800,384.800 20.800 L 381.200 20.800 381.200 14.200 L 381.200 7.600 385.200 7.600 L 389.200 7.600 390.800 9.200 C 392.057 10.457,392.400 11.100,392.400 12.200 C 392.400 13.178,392.581 13.600,393.000 13.600 C 393.330 13.600,393.600 13.870,393.600 14.200 C 393.600 14.601,394.001 14.800,394.813 14.800 C 395.521 14.800,396.121 14.551,396.255 14.200 C 396.382 13.870,396.736 13.600,397.043 13.600 C 397.445 13.600,397.600 13.043,397.600 11.600 C 397.600 10.089,397.453 9.600,397.000 9.600 C 396.520 9.600,396.400 9.000,396.400 6.600 L 396.400 3.600 381.400 3.600 L 366.400 3.600 366.400 5.000 M22.000 8.000 C 22.000 8.220,22.630 8.400,23.400 8.400 C 24.378 8.400,24.800 8.581,24.800 9.000 C 24.800 9.330,25.070 9.600,25.400 9.600 C 25.730 9.600,26.000 9.780,26.000 10.000 C 26.000 10.220,26.450 10.400,27.000 10.400 C 27.800 10.400,28.000 10.600,28.000 11.400 C 28.000 11.950,28.180 12.400,28.400 12.400 C 28.620 12.400,28.800 12.670,28.800 13.000 C 28.800 13.330,29.070 13.600,29.400 13.600 C 29.773 13.600,30.000 13.978,30.000 14.600 C 30.000 15.150,30.180 15.600,30.400 15.600 C 30.620 15.600,30.800 16.236,30.800 17.013 C 30.800 17.899,31.023 18.511,31.400 18.655 C 31.889 18.843,32.000 19.805,32.000 23.843 C 32.000 27.983,31.901 28.800,31.400 28.800 C 30.967 28.800,30.800 29.244,30.800 30.400 C 30.800 31.280,30.620 32.000,30.400 32.000 C 30.180 32.000,30.000 32.450,30.000 33.000 C 30.000 33.550,29.807 34.000,29.571 34.000 C 29.018 34.000,28.000 35.018,28.000 35.571 C 28.000 35.807,27.807 36.000,27.571 36.000 C 27.018 36.000,26.000 37.018,26.000 37.571 C 26.000 37.807,25.730 38.000,25.400 38.000 C 25.070 38.000,24.800 38.180,24.800 38.400 C 24.800 38.620,24.350 38.800,23.800 38.800 C 23.178 38.800,22.800 39.027,22.800 39.400 C 22.800 40.668,17.436 40.204,16.014 38.813 L 14.800 37.627 14.800 23.197 C 14.800 12.222,14.920 8.630,15.300 8.198 C 15.892 7.526,22.000 7.346,22.000 8.000 M198.400 18.413 C 198.400 18.859,198.670 19.329,199.000 19.455 C 199.391 19.605,199.600 20.228,199.600 21.243 C 199.600 22.099,199.780 22.800,200.000 22.800 C 200.220 22.800,200.400 23.346,200.400 24.013 C 200.400 24.721,200.649 25.321,201.000 25.455 C 202.878 26.176,201.487 26.800,198.000 26.800 C 195.067 26.800,194.400 26.689,194.400 26.200 C 194.400 25.870,194.670 25.600,195.000 25.600 C 195.373 25.600,195.600 25.222,195.600 24.600 C 195.600 24.050,195.780 23.600,196.000 23.600 C 196.220 23.600,196.400 22.989,196.400 22.243 C 196.400 21.405,196.630 20.797,197.000 20.655 C 197.377 20.511,197.600 19.899,197.600 19.013 C 197.600 18.236,197.780 17.600,198.000 17.600 C 198.220 17.600,198.400 17.966,198.400 18.413 " stroke="none" fill="#ffffff" fill-rule="evenodd"></path><path id="path3" d="M62.000 24.200 L 62.000 48.400 65.000 48.400 L 68.000 48.400 68.000 24.200 L 68.000 0.000 65.000 0.000 L 62.000 0.000 62.000 24.200 M151.200 24.200 L 151.200 48.400 154.200 48.400 L 157.200 48.400 157.200 24.200 L 157.200 0.000 154.200 0.000 L 151.200 0.000 151.200 24.200 M242.800 24.200 L 242.800 48.400 245.800 48.400 L 248.800 48.400 248.800 24.200 L 248.800 0.000 245.800 0.000 L 242.800 0.000 242.800 24.200 M332.000 24.200 L 332.000 48.400 335.000 48.400 L 338.000 48.400 338.000 24.200 L 338.000 0.000 335.000 0.000 L 332.000 0.000 332.000 24.200 M95.600 8.622 L 95.600 15.644 97.500 15.522 C 99.382 15.401,99.401 15.386,99.524 13.900 C 99.592 13.075,99.817 12.400,100.024 12.400 C 100.231 12.400,100.400 11.969,100.400 11.443 C 100.400 10.916,100.670 10.382,101.000 10.255 C 101.330 10.129,101.600 9.659,101.600 9.213 C 101.600 8.612,101.862 8.400,102.600 8.400 C 103.150 8.400,103.600 8.220,103.600 8.000 C 103.600 7.774,104.733 7.600,106.200 7.600 L 108.800 7.600 108.800 23.000 C 108.800 40.179,108.829 40.000,106.000 40.000 C 105.340 40.000,104.800 40.180,104.800 40.400 C 104.800 40.620,104.530 40.800,104.200 40.800 C 103.767 40.800,103.600 41.244,103.600 42.400 L 103.600 44.000 114.200 44.000 L 124.800 44.000 124.800 42.400 C 124.800 41.244,124.633 40.800,124.200 40.800 C 123.870 40.800,123.600 40.620,123.600 40.400 C 123.600 40.180,122.700 40.000,121.600 40.000 C 119.733 40.000,119.600 39.933,119.600 39.000 C 119.600 38.450,119.420 38.000,119.200 38.000 C 118.940 38.000,118.800 32.667,118.800 22.800 L 118.800 7.600 121.800 7.600 C 123.533 7.600,124.800 7.769,124.800 8.000 C 124.800 8.220,125.070 8.400,125.400 8.400 C 125.730 8.400,126.000 8.593,126.000 8.829 C 126.000 9.382,127.018 10.400,127.571 10.400 C 127.807 10.400,128.000 11.120,128.000 12.000 C 128.000 12.880,128.180 13.600,128.400 13.600 C 128.620 13.600,128.800 14.050,128.800 14.600 C 128.800 15.533,128.933 15.600,130.800 15.600 L 132.800 15.600 132.800 12.824 C 132.800 11.297,132.620 9.936,132.400 9.800 C 132.177 9.662,132.000 7.796,132.000 5.576 L 132.000 1.600 130.146 1.600 C 128.682 1.600,128.097 1.810,127.365 2.600 L 126.438 3.600 114.252 3.600 C 101.919 3.600,99.615 3.333,99.603 1.900 C 99.601 1.735,98.700 1.600,97.600 1.600 L 95.600 1.600 95.600 8.622 M199.600 3.000 C 199.600 3.330,199.330 3.600,199.000 3.600 C 198.670 3.600,198.400 3.870,198.400 4.200 C 198.400 4.530,198.220 4.800,198.000 4.800 C 197.780 4.800,197.600 5.231,197.600 5.757 C 197.600 6.284,197.330 6.818,197.000 6.945 C 196.649 7.079,196.400 7.679,196.400 8.387 C 196.400 9.054,196.220 9.600,196.000 9.600 C 195.780 9.600,195.600 10.031,195.600 10.557 C 195.600 11.084,195.330 11.618,195.000 11.745 C 194.623 11.889,194.400 12.501,194.400 13.387 C 194.400 14.164,194.220 14.800,194.000 14.800 C 193.780 14.800,193.600 15.231,193.600 15.757 C 193.600 16.284,193.330 16.818,193.000 16.945 C 192.649 17.079,192.400 17.679,192.400 18.387 C 192.400 19.054,192.220 19.600,192.000 19.600 C 191.780 19.600,191.600 20.140,191.600 20.800 C 191.600 21.600,191.400 22.000,191.000 22.000 C 190.581 22.000,190.400 22.422,190.400 23.400 C 190.400 24.170,190.220 24.800,190.000 24.800 C 189.780 24.800,189.600 25.231,189.600 25.757 C 189.600 26.284,189.330 26.818,189.000 26.945 C 188.623 27.089,188.400 27.701,188.400 28.587 C 188.400 29.364,188.220 30.000,188.000 30.000 C 187.780 30.000,187.600 30.450,187.600 31.000 C 187.600 31.622,187.373 32.000,187.000 32.000 C 186.581 32.000,186.400 32.422,186.400 33.400 C 186.400 34.170,186.220 34.800,186.000 34.800 C 185.780 34.800,185.600 35.231,185.600 35.757 C 185.600 36.284,185.330 36.818,185.000 36.945 C 184.670 37.071,184.400 37.451,184.400 37.787 C 184.400 38.740,182.909 40.000,181.783 40.000 C 180.312 40.000,179.111 41.270,179.269 42.658 L 179.400 43.800 186.900 43.909 L 194.400 44.018 194.400 42.009 L 194.400 40.000 192.896 40.000 C 191.106 40.000,189.782 38.578,190.959 37.919 C 191.354 37.698,191.600 37.031,191.600 36.180 C 191.600 35.421,191.780 34.800,192.000 34.800 C 192.220 34.800,192.400 34.080,192.400 33.200 L 192.400 31.600 198.000 31.600 L 203.600 31.600 203.600 32.600 C 203.600 33.222,203.827 33.600,204.200 33.600 C 204.633 33.600,204.800 34.044,204.800 35.200 C 204.800 36.080,204.980 36.800,205.200 36.800 C 205.420 36.800,205.600 37.520,205.600 38.400 C 205.600 39.840,205.500 40.000,204.600 40.000 C 204.050 40.000,203.600 40.180,203.600 40.400 C 203.600 40.620,203.319 40.800,202.976 40.800 C 202.499 40.800,202.381 41.155,202.476 42.300 L 202.600 43.800 212.100 43.907 L 221.600 44.014 221.600 42.579 C 221.600 40.761,220.841 40.000,219.029 40.000 C 218.025 40.000,217.600 39.821,217.600 39.400 C 217.600 39.070,217.420 38.800,217.200 38.800 C 216.980 38.800,216.800 38.350,216.800 37.800 C 216.800 37.178,216.573 36.800,216.200 36.800 C 215.781 36.800,215.600 36.378,215.600 35.400 C 215.600 34.630,215.420 34.000,215.200 34.000 C 214.980 34.000,214.800 33.550,214.800 33.000 C 214.800 32.378,214.573 32.000,214.200 32.000 C 213.767 32.000,213.600 31.556,213.600 30.400 C 213.600 29.520,213.420 28.800,213.200 28.800 C 212.980 28.800,212.800 28.363,212.800 27.829 C 212.800 27.294,212.530 26.587,212.200 26.257 C 211.870 25.927,211.600 25.194,211.600 24.629 C 211.600 24.063,211.420 23.600,211.200 23.600 C 210.980 23.600,210.800 23.054,210.800 22.387 C 210.800 21.679,210.551 21.079,210.200 20.945 C 209.828 20.802,209.600 20.193,209.600 19.345 C 209.600 18.496,209.372 17.887,209.000 17.745 C 208.670 17.618,208.400 17.084,208.400 16.557 C 208.400 16.031,208.220 15.600,208.000 15.600 C 207.780 15.600,207.600 14.970,207.600 14.200 C 207.600 13.222,207.419 12.800,207.000 12.800 C 206.567 12.800,206.400 12.356,206.400 11.200 C 206.400 10.320,206.220 9.600,206.000 9.600 C 205.780 9.600,205.600 8.970,205.600 8.200 C 205.600 7.222,205.419 6.800,205.000 6.800 C 204.627 6.800,204.400 6.422,204.400 5.800 C 204.400 5.250,204.220 4.800,204.000 4.800 C 203.780 4.800,203.600 4.260,203.600 3.600 C 203.600 2.427,203.556 2.400,201.600 2.400 C 200.089 2.400,199.600 2.547,199.600 3.000 M0.478 5.500 C 0.599 7.382,0.614 7.401,2.100 7.524 C 2.925 7.592,3.600 7.817,3.600 8.024 C 3.600 8.231,3.870 8.400,4.200 8.400 C 4.723 8.400,4.800 10.333,4.800 23.400 C 4.800 39.993,4.799 40.000,2.171 40.000 C 0.748 40.000,-0.000 40.886,-0.000 42.571 L 0.000 44.000 12.800 44.000 C 23.911 44.000,25.600 43.921,25.600 43.400 C 25.600 42.947,26.089 42.800,27.600 42.800 C 28.700 42.800,29.600 42.620,29.600 42.400 C 29.600 42.180,30.056 42.000,30.613 42.000 C 31.169 42.000,31.729 41.730,31.855 41.400 C 31.982 41.070,32.381 40.794,32.743 40.787 C 33.572 40.771,34.800 39.857,34.800 39.256 C 34.800 39.005,35.250 38.800,35.800 38.800 C 36.366 38.800,36.800 38.569,36.800 38.268 C 36.800 37.975,37.250 37.494,37.800 37.200 C 38.428 36.864,38.800 36.318,38.800 35.732 C 38.800 35.170,39.038 34.800,39.400 34.800 C 39.773 34.800,40.000 34.422,40.000 33.800 C 40.000 33.250,40.180 32.800,40.400 32.800 C 40.620 32.800,40.800 32.350,40.800 31.800 C 40.800 31.178,41.027 30.800,41.400 30.800 C 41.853 30.800,42.000 30.311,42.000 28.800 C 42.000 27.700,42.180 26.800,42.400 26.800 C 42.643 26.800,42.800 25.000,42.800 22.200 C 42.800 19.400,42.643 17.600,42.400 17.600 C 42.180 17.600,42.000 16.970,42.000 16.200 C 42.000 15.222,41.819 14.800,41.400 14.800 C 41.027 14.800,40.800 14.422,40.800 13.800 C 40.800 13.250,40.620 12.800,40.400 12.800 C 40.180 12.800,40.000 12.350,40.000 11.800 C 40.000 11.178,39.773 10.800,39.400 10.800 C 39.070 10.800,38.800 10.607,38.800 10.371 C 38.800 9.818,37.782 8.800,37.229 8.800 C 36.993 8.800,36.800 8.607,36.800 8.371 C 36.800 7.666,35.714 6.800,34.829 6.800 C 34.359 6.800,34.000 6.540,34.000 6.200 C 34.000 5.827,33.622 5.600,33.000 5.600 C 32.450 5.600,32.000 5.420,32.000 5.200 C 32.000 4.980,31.280 4.800,30.400 4.800 C 29.244 4.800,28.800 4.633,28.800 4.200 C 28.800 3.678,26.953 3.600,14.578 3.600 L 0.356 3.600 0.478 5.500 M272.400 5.000 C 272.400 5.770,272.580 6.400,272.800 6.400 C 273.020 6.400,273.200 6.670,273.200 7.000 C 273.200 7.433,273.644 7.600,274.800 7.600 C 275.680 7.600,276.400 7.780,276.400 8.000 C 276.400 8.220,276.850 8.400,277.400 8.400 C 278.022 8.400,278.400 8.627,278.400 9.000 C 278.400 9.330,278.560 9.600,278.757 9.600 C 278.953 9.600,279.226 10.050,279.364 10.600 C 279.502 11.150,279.792 11.600,280.008 11.600 C 280.223 11.600,280.400 11.870,280.400 12.200 C 280.400 12.530,280.580 12.800,280.800 12.800 C 281.020 12.800,281.200 13.027,281.200 13.304 C 281.200 13.581,281.650 14.293,282.200 14.887 C 282.750 15.480,283.200 16.333,283.200 16.783 C 283.200 17.243,283.462 17.600,283.800 17.600 C 284.173 17.600,284.400 17.978,284.400 18.600 C 284.400 19.222,284.627 19.600,285.000 19.600 C 285.330 19.600,285.600 19.870,285.600 20.200 C 285.600 20.530,285.780 20.800,286.000 20.800 C 286.220 20.800,286.400 21.250,286.400 21.800 C 286.400 22.385,286.630 22.800,286.953 22.800 C 287.868 22.800,288.014 24.796,287.153 25.533 C 286.739 25.888,286.400 26.498,286.400 26.889 C 286.400 27.280,286.220 27.600,286.000 27.600 C 285.780 27.600,285.600 27.870,285.600 28.200 C 285.600 28.530,285.330 28.800,285.000 28.800 C 284.670 28.800,284.400 29.070,284.400 29.400 C 284.400 29.730,284.232 30.000,284.027 30.000 C 283.822 30.000,283.529 30.394,283.376 30.875 C 283.224 31.356,282.492 32.322,281.749 33.022 C 281.007 33.722,280.400 34.678,280.400 35.147 C 280.400 35.616,280.207 36.000,279.971 36.000 C 279.418 36.000,278.400 37.018,278.400 37.571 C 278.400 37.807,278.130 38.000,277.800 38.000 C 277.470 38.000,277.200 38.180,277.200 38.400 C 277.200 38.620,276.834 38.800,276.387 38.800 C 275.941 38.800,275.471 39.070,275.345 39.400 C 275.203 39.770,274.595 40.000,273.757 40.000 C 273.011 40.000,272.400 40.180,272.400 40.400 C 272.400 40.620,272.119 40.800,271.776 40.800 C 271.299 40.800,271.181 41.155,271.276 42.300 L 271.400 43.800 279.900 43.908 L 288.400 44.016 288.400 42.408 C 288.400 41.245,288.234 40.800,287.800 40.800 C 287.470 40.800,287.200 40.620,287.200 40.400 C 287.200 40.180,286.570 40.000,285.800 40.000 C 284.822 40.000,284.400 39.819,284.400 39.400 C 284.400 39.070,284.580 38.800,284.800 38.800 C 285.020 38.800,285.200 38.350,285.200 37.800 C 285.200 37.178,285.427 36.800,285.800 36.800 C 286.130 36.800,286.400 36.530,286.400 36.200 C 286.400 35.870,286.580 35.600,286.800 35.600 C 287.020 35.600,287.200 35.150,287.200 34.600 C 287.200 33.978,287.427 33.600,287.800 33.600 C 288.140 33.600,288.400 33.241,288.400 32.771 C 288.400 31.886,289.266 30.800,289.971 30.800 C 290.207 30.800,290.400 30.350,290.400 29.800 C 290.400 29.178,290.627 28.800,291.000 28.800 C 291.373 28.800,291.600 29.178,291.600 29.800 C 291.600 30.350,291.780 30.800,292.000 30.800 C 292.220 30.800,292.400 31.166,292.400 31.613 C 292.400 32.059,292.670 32.529,293.000 32.655 C 293.330 32.782,293.606 33.181,293.613 33.543 C 293.629 34.372,294.543 35.600,295.144 35.600 C 295.395 35.600,295.600 36.039,295.600 36.576 C 295.600 37.113,295.780 37.664,296.000 37.800 C 296.792 38.289,296.458 40.000,295.571 40.000 C 294.338 40.000,293.600 40.965,293.600 42.578 L 293.600 44.013 304.100 43.907 L 314.600 43.800 314.733 42.859 C 315.030 40.763,314.507 40.000,312.773 40.000 C 311.568 40.000,310.928 39.748,310.235 39.000 C 309.725 38.450,309.104 38.000,308.854 38.000 C 308.604 38.000,308.400 37.807,308.400 37.571 C 308.400 37.018,307.382 36.000,306.829 36.000 C 306.593 36.000,306.400 35.550,306.400 35.000 C 306.400 34.450,306.220 34.000,306.000 34.000 C 305.780 34.000,305.600 33.730,305.600 33.400 C 305.600 33.070,305.330 32.800,305.000 32.800 C 304.627 32.800,304.400 32.422,304.400 31.800 C 304.400 31.250,304.220 30.800,304.000 30.800 C 303.780 30.800,303.600 30.434,303.600 29.987 C 303.600 29.541,303.330 29.071,303.000 28.945 C 302.670 28.818,302.400 28.464,302.400 28.157 C 302.400 27.851,302.220 27.600,302.000 27.600 C 301.780 27.600,301.600 27.265,301.600 26.856 C 301.600 26.447,301.150 25.774,300.600 25.361 C 300.049 24.947,299.600 24.204,299.600 23.705 C 299.600 23.167,299.357 22.800,299.000 22.800 C 298.627 22.800,298.400 22.422,298.400 21.800 C 298.400 21.250,298.220 20.800,298.000 20.800 C 297.780 20.800,297.600 20.530,297.600 20.200 C 297.600 19.870,297.780 19.600,298.000 19.600 C 298.220 19.600,298.400 19.330,298.400 19.000 C 298.400 18.670,298.670 18.400,299.000 18.400 C 299.333 18.400,299.600 18.044,299.600 17.600 C 299.600 17.160,299.780 16.800,300.000 16.800 C 300.220 16.800,300.400 16.530,300.400 16.200 C 300.400 15.870,300.670 15.600,301.000 15.600 C 301.330 15.600,301.600 15.330,301.600 15.000 C 301.600 14.670,301.780 14.400,302.000 14.400 C 302.220 14.400,302.400 14.040,302.400 13.600 C 302.400 13.156,302.667 12.800,303.000 12.800 C 303.330 12.800,303.600 12.530,303.600 12.200 C 303.600 11.870,303.780 11.600,304.000 11.600 C 304.220 11.600,304.400 11.330,304.400 11.000 C 304.400 10.670,304.593 10.400,304.829 10.400 C 305.382 10.400,306.400 9.382,306.400 8.829 C 306.400 8.593,306.850 8.400,307.400 8.400 C 307.950 8.400,308.400 8.220,308.400 8.000 C 308.400 7.780,309.120 7.600,310.000 7.600 C 311.156 7.600,311.600 7.433,311.600 7.000 C 311.600 6.670,311.870 6.400,312.200 6.400 C 312.619 6.400,312.800 5.978,312.800 5.000 L 312.800 3.600 304.578 3.600 L 296.356 3.600 296.478 5.500 C 296.599 7.382,296.614 7.401,298.100 7.524 C 299.419 7.633,300.432 8.800,299.208 8.800 C 298.992 8.800,298.702 9.250,298.564 9.800 C 298.426 10.350,298.153 10.800,297.957 10.800 C 297.760 10.800,297.600 11.250,297.600 11.800 C 297.600 12.350,297.395 12.800,297.144 12.800 C 296.529 12.800,295.628 14.035,295.613 14.900 C 295.584 16.454,292.400 13.962,292.400 12.386 C 292.400 11.954,292.220 11.600,292.000 11.600 C 291.780 11.600,291.600 11.343,291.600 11.029 C 291.600 10.714,291.363 10.219,291.072 9.929 C 289.966 8.820,290.000 7.655,291.143 7.522 C 292.100 7.412,292.212 7.219,292.322 5.500 L 292.444 3.600 282.422 3.600 L 272.400 3.600 272.400 5.000 M366.400 5.000 C 366.400 5.770,366.580 6.400,366.800 6.400 C 367.020 6.400,367.200 6.670,367.200 7.000 C 367.200 7.421,367.625 7.600,368.629 7.600 C 371.273 7.600,371.200 7.141,371.200 23.771 C 371.200 33.524,371.060 38.800,370.800 38.800 C 370.580 38.800,370.400 39.070,370.400 39.400 C 370.400 39.833,369.956 40.000,368.800 40.000 C 367.920 40.000,367.200 40.180,367.200 40.400 C 367.200 40.620,366.750 40.800,366.200 40.800 C 365.300 40.800,365.200 40.960,365.200 42.400 L 365.200 44.000 381.800 44.000 L 398.400 44.000 398.400 42.443 C 398.400 41.508,398.615 40.803,398.938 40.679 C 399.662 40.401,400.196 33.318,399.551 32.541 C 398.467 31.235,395.600 32.242,395.600 33.929 C 395.600 34.361,395.330 34.818,395.000 34.945 C 394.670 35.071,394.400 35.541,394.400 35.987 C 394.400 36.434,394.220 36.800,394.000 36.800 C 393.780 36.800,393.600 37.070,393.600 37.400 C 393.600 37.730,393.407 38.000,393.171 38.000 C 392.618 38.000,391.600 39.018,391.600 39.571 C 391.600 39.850,390.062 40.000,387.200 40.000 C 381.023 40.000,381.200 40.236,381.200 32.000 L 381.200 25.600 384.800 25.600 C 387.733 25.600,388.400 25.711,388.400 26.200 C 388.400 26.530,388.670 26.800,389.000 26.800 C 389.419 26.800,389.600 27.222,389.600 28.200 L 389.600 29.600 392.000 29.600 L 394.400 29.600 394.400 23.200 L 394.400 16.800 392.000 16.800 L 389.600 16.800 389.600 18.200 C 389.600 19.178,389.419 19.600,389.000 19.600 C 388.670 19.600,388.400 19.870,388.400 20.200 C 388.400 20.689,387.733 20.800,384.800 20.800 L 381.200 20.800 381.200 14.200 L 381.200 7.600 385.200 7.600 L 389.200 7.600 390.800 9.200 C 392.057 10.457,392.400 11.100,392.400 12.200 C 392.400 13.178,392.581 13.600,393.000 13.600 C 393.330 13.600,393.600 13.870,393.600 14.200 C 393.600 14.601,394.001 14.800,394.813 14.800 C 395.521 14.800,396.121 14.551,396.255 14.200 C 396.382 13.870,396.736 13.600,397.043 13.600 C 397.445 13.600,397.600 13.043,397.600 11.600 C 397.600 10.089,397.453 9.600,397.000 9.600 C 396.520 9.600,396.400 9.000,396.400 6.600 L 396.400 3.600 381.400 3.600 L 366.400 3.600 366.400 5.000 M22.000 8.000 C 22.000 8.220,22.630 8.400,23.400 8.400 C 24.378 8.400,24.800 8.581,24.800 9.000 C 24.800 9.330,25.070 9.600,25.400 9.600 C 25.730 9.600,26.000 9.780,26.000 10.000 C 26.000 10.220,26.450 10.400,27.000 10.400 C 27.800 10.400,28.000 10.600,28.000 11.400 C 28.000 11.950,28.180 12.400,28.400 12.400 C 28.620 12.400,28.800 12.670,28.800 13.000 C 28.800 13.330,29.070 13.600,29.400 13.600 C 29.773 13.600,30.000 13.978,30.000 14.600 C 30.000 15.150,30.180 15.600,30.400 15.600 C 30.620 15.600,30.800 16.236,30.800 17.013 C 30.800 17.899,31.023 18.511,31.400 18.655 C 31.889 18.843,32.000 19.805,32.000 23.843 C 32.000 27.983,31.901 28.800,31.400 28.800 C 30.967 28.800,30.800 29.244,30.800 30.400 C 30.800 31.280,30.620 32.000,30.400 32.000 C 30.180 32.000,30.000 32.450,30.000 33.000 C 30.000 33.550,29.807 34.000,29.571 34.000 C 29.018 34.000,28.000 35.018,28.000 35.571 C 28.000 35.807,27.807 36.000,27.571 36.000 C 27.018 36.000,26.000 37.018,26.000 37.571 C 26.000 37.807,25.730 38.000,25.400 38.000 C 25.070 38.000,24.800 38.180,24.800 38.400 C 24.800 38.620,24.350 38.800,23.800 38.800 C 23.178 38.800,22.800 39.027,22.800 39.400 C 22.800 40.668,17.436 40.204,16.014 38.813 L 14.800 37.627 14.800 23.197 C 14.800 12.222,14.920 8.630,15.300 8.198 C 15.892 7.526,22.000 7.346,22.000 8.000 M198.400 18.413 C 198.400 18.859,198.670 19.329,199.000 19.455 C 199.391 19.605,199.600 20.228,199.600 21.243 C 199.600 22.099,199.780 22.800,200.000 22.800 C 200.220 22.800,200.400 23.346,200.400 24.013 C 200.400 24.721,200.649 25.321,201.000 25.455 C 202.878 26.176,201.487 26.800,198.000 26.800 C 195.067 26.800,194.400 26.689,194.400 26.200 C 194.400 25.870,194.670 25.600,195.000 25.600 C 195.373 25.600,195.600 25.222,195.600 24.600 C 195.600 24.050,195.780 23.600,196.000 23.600 C 196.220 23.600,196.400 22.989,196.400 22.243 C 196.400 21.405,196.630 20.797,197.000 20.655 C 197.377 20.511,197.600 19.899,197.600 19.013 C 197.600 18.236,197.780 17.600,198.000 17.600 C 198.220 17.600,198.400 17.966,198.400 18.413 " stroke="none" fill="#ffffff" fill-rule="evenodd"></path><path id="path4" d="M62.000 24.200 L 62.000 48.400 65.000 48.400 L 68.000 48.400 68.000 24.200 L 68.000 0.000 65.000 0.000 L 62.000 0.000 62.000 24.200 M151.200 24.200 L 151.200 48.400 154.200 48.400 L 157.200 48.400 157.200 24.200 L 157.200 0.000 154.200 0.000 L 151.200 0.000 151.200 24.200 M242.800 24.200 L 242.800 48.400 245.800 48.400 L 248.800 48.400 248.800 24.200 L 248.800 0.000 245.800 0.000 L 242.800 0.000 242.800 24.200 M332.000 24.200 L 332.000 48.400 335.000 48.400 L 338.000 48.400 338.000 24.200 L 338.000 0.000 335.000 0.000 L 332.000 0.000 332.000 24.200 M95.600 8.622 L 95.600 15.644 97.500 15.522 C 99.382 15.401,99.401 15.386,99.524 13.900 C 99.592 13.075,99.817 12.400,100.024 12.400 C 100.231 12.400,100.400 11.969,100.400 11.443 C 100.400 10.916,100.670 10.382,101.000 10.255 C 101.330 10.129,101.600 9.659,101.600 9.213 C 101.600 8.612,101.862 8.400,102.600 8.400 C 103.150 8.400,103.600 8.220,103.600 8.000 C 103.600 7.774,104.733 7.600,106.200 7.600 L 108.800 7.600 108.800 23.000 C 108.800 40.179,108.829 40.000,106.000 40.000 C 105.340 40.000,104.800 40.180,104.800 40.400 C 104.800 40.620,104.530 40.800,104.200 40.800 C 103.767 40.800,103.600 41.244,103.600 42.400 L 103.600 44.000 114.200 44.000 L 124.800 44.000 124.800 42.400 C 124.800 41.244,124.633 40.800,124.200 40.800 C 123.870 40.800,123.600 40.620,123.600 40.400 C 123.600 40.180,122.700 40.000,121.600 40.000 C 119.733 40.000,119.600 39.933,119.600 39.000 C 119.600 38.450,119.420 38.000,119.200 38.000 C 118.940 38.000,118.800 32.667,118.800 22.800 L 118.800 7.600 121.800 7.600 C 123.533 7.600,124.800 7.769,124.800 8.000 C 124.800 8.220,125.070 8.400,125.400 8.400 C 125.730 8.400,126.000 8.593,126.000 8.829 C 126.000 9.382,127.018 10.400,127.571 10.400 C 127.807 10.400,128.000 11.120,128.000 12.000 C 128.000 12.880,128.180 13.600,128.400 13.600 C 128.620 13.600,128.800 14.050,128.800 14.600 C 128.800 15.533,128.933 15.600,130.800 15.600 L 132.800 15.600 132.800 12.824 C 132.800 11.297,132.620 9.936,132.400 9.800 C 132.177 9.662,132.000 7.796,132.000 5.576 L 132.000 1.600 130.146 1.600 C 128.682 1.600,128.097 1.810,127.365 2.600 L 126.438 3.600 114.252 3.600 C 101.919 3.600,99.615 3.333,99.603 1.900 C 99.601 1.735,98.700 1.600,97.600 1.600 L 95.600 1.600 95.600 8.622 M199.600 3.000 C 199.600 3.330,199.330 3.600,199.000 3.600 C 198.670 3.600,198.400 3.870,198.400 4.200 C 198.400 4.530,198.220 4.800,198.000 4.800 C 197.780 4.800,197.600 5.231,197.600 5.757 C 197.600 6.284,197.330 6.818,197.000 6.945 C 196.649 7.079,196.400 7.679,196.400 8.387 C 196.400 9.054,196.220 9.600,196.000 9.600 C 195.780 9.600,195.600 10.031,195.600 10.557 C 195.600 11.084,195.330 11.618,195.000 11.745 C 194.623 11.889,194.400 12.501,194.400 13.387 C 194.400 14.164,194.220 14.800,194.000 14.800 C 193.780 14.800,193.600 15.231,193.600 15.757 C 193.600 16.284,193.330 16.818,193.000 16.945 C 192.649 17.079,192.400 17.679,192.400 18.387 C 192.400 19.054,192.220 19.600,192.000 19.600 C 191.780 19.600,191.600 20.140,191.600 20.800 C 191.600 21.600,191.400 22.000,191.000 22.000 C 190.581 22.000,190.400 22.422,190.400 23.400 C 190.400 24.170,190.220 24.800,190.000 24.800 C 189.780 24.800,189.600 25.231,189.600 25.757 C 189.600 26.284,189.330 26.818,189.000 26.945 C 188.623 27.089,188.400 27.701,188.400 28.587 C 188.400 29.364,188.220 30.000,188.000 30.000 C 187.780 30.000,187.600 30.450,187.600 31.000 C 187.600 31.622,187.373 32.000,187.000 32.000 C 186.581 32.000,186.400 32.422,186.400 33.400 C 186.400 34.170,186.220 34.800,186.000 34.800 C 185.780 34.800,185.600 35.231,185.600 35.757 C 185.600 36.284,185.330 36.818,185.000 36.945 C 184.670 37.071,184.400 37.451,184.400 37.787 C 184.400 38.740,182.909 40.000,181.783 40.000 C 180.312 40.000,179.111 41.270,179.269 42.658 L 179.400 43.800 186.900 43.909 L 194.400 44.018 194.400 42.009 L 194.400 40.000 192.896 40.000 C 191.106 40.000,189.782 38.578,190.959 37.919 C 191.354 37.698,191.600 37.031,191.600 36.180 C 191.600 35.421,191.780 34.800,192.000 34.800 C 192.220 34.800,192.400 34.080,192.400 33.200 L 192.400 31.600 198.000 31.600 L 203.600 31.600 203.600 32.600 C 203.600 33.222,203.827 33.600,204.200 33.600 C 204.633 33.600,204.800 34.044,204.800 35.200 C 204.800 36.080,204.980 36.800,205.200 36.800 C 205.420 36.800,205.600 37.520,205.600 38.400 C 205.600 39.840,205.500 40.000,204.600 40.000 C 204.050 40.000,203.600 40.180,203.600 40.400 C 203.600 40.620,203.319 40.800,202.976 40.800 C 202.499 40.800,202.381 41.155,202.476 42.300 L 202.600 43.800 212.100 43.907 L 221.600 44.014 221.600 42.579 C 221.600 40.761,220.841 40.000,219.029 40.000 C 218.025 40.000,217.600 39.821,217.600 39.400 C 217.600 39.070,217.420 38.800,217.200 38.800 C 216.980 38.800,216.800 38.350,216.800 37.800 C 216.800 37.178,216.573 36.800,216.200 36.800 C 215.781 36.800,215.600 36.378,215.600 35.400 C 215.600 34.630,215.420 34.000,215.200 34.000 C 214.980 34.000,214.800 33.550,214.800 33.000 C 214.800 32.378,214.573 32.000,214.200 32.000 C 213.767 32.000,213.600 31.556,213.600 30.400 C 213.600 29.520,213.420 28.800,213.200 28.800 C 212.980 28.800,212.800 28.363,212.800 27.829 C 212.800 27.294,212.530 26.587,212.200 26.257 C 211.870 25.927,211.600 25.194,211.600 24.629 C 211.600 24.063,211.420 23.600,211.200 23.600 C 210.980 23.600,210.800 23.054,210.800 22.387 C 210.800 21.679,210.551 21.079,210.200 20.945 C 209.828 20.802,209.600 20.193,209.600 19.345 C 209.600 18.496,209.372 17.887,209.000 17.745 C 208.670 17.618,208.400 17.084,208.400 16.557 C 208.400 16.031,208.220 15.600,208.000 15.600 C 207.780 15.600,207.600 14.970,207.600 14.200 C 207.600 13.222,207.419 12.800,207.000 12.800 C 206.567 12.800,206.400 12.356,206.400 11.200 C 206.400 10.320,206.220 9.600,206.000 9.600 C 205.780 9.600,205.600 8.970,205.600 8.200 C 205.600 7.222,205.419 6.800,205.000 6.800 C 204.627 6.800,204.400 6.422,204.400 5.800 C 204.400 5.250,204.220 4.800,204.000 4.800 C 203.780 4.800,203.600 4.260,203.600 3.600 C 203.600 2.427,203.556 2.400,201.600 2.400 C 200.089 2.400,199.600 2.547,199.600 3.000 M0.478 5.500 C 0.599 7.382,0.614 7.401,2.100 7.524 C 2.925 7.592,3.600 7.817,3.600 8.024 C 3.600 8.231,3.870 8.400,4.200 8.400 C 4.723 8.400,4.800 10.333,4.800 23.400 C 4.800 39.993,4.799 40.000,2.171 40.000 C 0.748 40.000,-0.000 40.886,-0.000 42.571 L 0.000 44.000 12.800 44.000 C 23.911 44.000,25.600 43.921,25.600 43.400 C 25.600 42.947,26.089 42.800,27.600 42.800 C 28.700 42.800,29.600 42.620,29.600 42.400 C 29.600 42.180,30.056 42.000,30.613 42.000 C 31.169 42.000,31.729 41.730,31.855 41.400 C 31.982 41.070,32.381 40.794,32.743 40.787 C 33.572 40.771,34.800 39.857,34.800 39.256 C 34.800 39.005,35.250 38.800,35.800 38.800 C 36.366 38.800,36.800 38.569,36.800 38.268 C 36.800 37.975,37.250 37.494,37.800 37.200 C 38.428 36.864,38.800 36.318,38.800 35.732 C 38.800 35.170,39.038 34.800,39.400 34.800 C 39.773 34.800,40.000 34.422,40.000 33.800 C 40.000 33.250,40.180 32.800,40.400 32.800 C 40.620 32.800,40.800 32.350,40.800 31.800 C 40.800 31.178,41.027 30.800,41.400 30.800 C 41.853 30.800,42.000 30.311,42.000 28.800 C 42.000 27.700,42.180 26.800,42.400 26.800 C 42.643 26.800,42.800 25.000,42.800 22.200 C 42.800 19.400,42.643 17.600,42.400 17.600 C 42.180 17.600,42.000 16.970,42.000 16.200 C 42.000 15.222,41.819 14.800,41.400 14.800 C 41.027 14.800,40.800 14.422,40.800 13.800 C 40.800 13.250,40.620 12.800,40.400 12.800 C 40.180 12.800,40.000 12.350,40.000 11.800 C 40.000 11.178,39.773 10.800,39.400 10.800 C 39.070 10.800,38.800 10.607,38.800 10.371 C 38.800 9.818,37.782 8.800,37.229 8.800 C 36.993 8.800,36.800 8.607,36.800 8.371 C 36.800 7.666,35.714 6.800,34.829 6.800 C 34.359 6.800,34.000 6.540,34.000 6.200 C 34.000 5.827,33.622 5.600,33.000 5.600 C 32.450 5.600,32.000 5.420,32.000 5.200 C 32.000 4.980,31.280 4.800,30.400 4.800 C 29.244 4.800,28.800 4.633,28.800 4.200 C 28.800 3.678,26.953 3.600,14.578 3.600 L 0.356 3.600 0.478 5.500 M272.400 5.000 C 272.400 5.770,272.580 6.400,272.800 6.400 C 273.020 6.400,273.200 6.670,273.200 7.000 C 273.200 7.433,273.644 7.600,274.800 7.600 C 275.680 7.600,276.400 7.780,276.400 8.000 C 276.400 8.220,276.850 8.400,277.400 8.400 C 278.022 8.400,278.400 8.627,278.400 9.000 C 278.400 9.330,278.560 9.600,278.757 9.600 C 278.953 9.600,279.226 10.050,279.364 10.600 C 279.502 11.150,279.792 11.600,280.008 11.600 C 280.223 11.600,280.400 11.870,280.400 12.200 C 280.400 12.530,280.580 12.800,280.800 12.800 C 281.020 12.800,281.200 13.027,281.200 13.304 C 281.200 13.581,281.650 14.293,282.200 14.887 C 282.750 15.480,283.200 16.333,283.200 16.783 C 283.200 17.243,283.462 17.600,283.800 17.600 C 284.173 17.600,284.400 17.978,284.400 18.600 C 284.400 19.222,284.627 19.600,285.000 19.600 C 285.330 19.600,285.600 19.870,285.600 20.200 C 285.600 20.530,285.780 20.800,286.000 20.800 C 286.220 20.800,286.400 21.250,286.400 21.800 C 286.400 22.385,286.630 22.800,286.953 22.800 C 287.868 22.800,288.014 24.796,287.153 25.533 C 286.739 25.888,286.400 26.498,286.400 26.889 C 286.400 27.280,286.220 27.600,286.000 27.600 C 285.780 27.600,285.600 27.870,285.600 28.200 C 285.600 28.530,285.330 28.800,285.000 28.800 C 284.670 28.800,284.400 29.070,284.400 29.400 C 284.400 29.730,284.232 30.000,284.027 30.000 C 283.822 30.000,283.529 30.394,283.376 30.875 C 283.224 31.356,282.492 32.322,281.749 33.022 C 281.007 33.722,280.400 34.678,280.400 35.147 C 280.400 35.616,280.207 36.000,279.971 36.000 C 279.418 36.000,278.400 37.018,278.400 37.571 C 278.400 37.807,278.130 38.000,277.800 38.000 C 277.470 38.000,277.200 38.180,277.200 38.400 C 277.200 38.620,276.834 38.800,276.387 38.800 C 275.941 38.800,275.471 39.070,275.345 39.400 C 275.203 39.770,274.595 40.000,273.757 40.000 C 273.011 40.000,272.400 40.180,272.400 40.400 C 272.400 40.620,272.119 40.800,271.776 40.800 C 271.299 40.800,271.181 41.155,271.276 42.300 L 271.400 43.800 279.900 43.908 L 288.400 44.016 288.400 42.408 C 288.400 41.245,288.234 40.800,287.800 40.800 C 287.470 40.800,287.200 40.620,287.200 40.400 C 287.200 40.180,286.570 40.000,285.800 40.000 C 284.822 40.000,284.400 39.819,284.400 39.400 C 284.400 39.070,284.580 38.800,284.800 38.800 C 285.020 38.800,285.200 38.350,285.200 37.800 C 285.200 37.178,285.427 36.800,285.800 36.800 C 286.130 36.800,286.400 36.530,286.400 36.200 C 286.400 35.870,286.580 35.600,286.800 35.600 C 287.020 35.600,287.200 35.150,287.200 34.600 C 287.200 33.978,287.427 33.600,287.800 33.600 C 288.140 33.600,288.400 33.241,288.400 32.771 C 288.400 31.886,289.266 30.800,289.971 30.800 C 290.207 30.800,290.400 30.350,290.400 29.800 C 290.400 29.178,290.627 28.800,291.000 28.800 C 291.373 28.800,291.600 29.178,291.600 29.800 C 291.600 30.350,291.780 30.800,292.000 30.800 C 292.220 30.800,292.400 31.166,292.400 31.613 C 292.400 32.059,292.670 32.529,293.000 32.655 C 293.330 32.782,293.606 33.181,293.613 33.543 C 293.629 34.372,294.543 35.600,295.144 35.600 C 295.395 35.600,295.600 36.039,295.600 36.576 C 295.600 37.113,295.780 37.664,296.000 37.800 C 296.792 38.289,296.458 40.000,295.571 40.000 C 294.338 40.000,293.600 40.965,293.600 42.578 L 293.600 44.013 304.100 43.907 L 314.600 43.800 314.733 42.859 C 315.030 40.763,314.507 40.000,312.773 40.000 C 311.568 40.000,310.928 39.748,310.235 39.000 C 309.725 38.450,309.104 38.000,308.854 38.000 C 308.604 38.000,308.400 37.807,308.400 37.571 C 308.400 37.018,307.382 36.000,306.829 36.000 C 306.593 36.000,306.400 35.550,306.400 35.000 C 306.400 34.450,306.220 34.000,306.000 34.000 C 305.780 34.000,305.600 33.730,305.600 33.400 C 305.600 33.070,305.330 32.800,305.000 32.800 C 304.627 32.800,304.400 32.422,304.400 31.800 C 304.400 31.250,304.220 30.800,304.000 30.800 C 303.780 30.800,303.600 30.434,303.600 29.987 C 303.600 29.541,303.330 29.071,303.000 28.945 C 302.670 28.818,302.400 28.464,302.400 28.157 C 302.400 27.851,302.220 27.600,302.000 27.600 C 301.780 27.600,301.600 27.265,301.600 26.856 C 301.600 26.447,301.150 25.774,300.600 25.361 C 300.049 24.947,299.600 24.204,299.600 23.705 C 299.600 23.167,299.357 22.800,299.000 22.800 C 298.627 22.800,298.400 22.422,298.400 21.800 C 298.400 21.250,298.220 20.800,298.000 20.800 C 297.780 20.800,297.600 20.530,297.600 20.200 C 297.600 19.870,297.780 19.600,298.000 19.600 C 298.220 19.600,298.400 19.330,298.400 19.000 C 298.400 18.670,298.670 18.400,299.000 18.400 C 299.333 18.400,299.600 18.044,299.600 17.600 C 299.600 17.160,299.780 16.800,300.000 16.800 C 300.220 16.800,300.400 16.530,300.400 16.200 C 300.400 15.870,300.670 15.600,301.000 15.600 C 301.330 15.600,301.600 15.330,301.600 15.000 C 301.600 14.670,301.780 14.400,302.000 14.400 C 302.220 14.400,302.400 14.040,302.400 13.600 C 302.400 13.156,302.667 12.800,303.000 12.800 C 303.330 12.800,303.600 12.530,303.600 12.200 C 303.600 11.870,303.780 11.600,304.000 11.600 C 304.220 11.600,304.400 11.330,304.400 11.000 C 304.400 10.670,304.593 10.400,304.829 10.400 C 305.382 10.400,306.400 9.382,306.400 8.829 C 306.400 8.593,306.850 8.400,307.400 8.400 C 307.950 8.400,308.400 8.220,308.400 8.000 C 308.400 7.780,309.120 7.600,310.000 7.600 C 311.156 7.600,311.600 7.433,311.600 7.000 C 311.600 6.670,311.870 6.400,312.200 6.400 C 312.619 6.400,312.800 5.978,312.800 5.000 L 312.800 3.600 304.578 3.600 L 296.356 3.600 296.478 5.500 C 296.599 7.382,296.614 7.401,298.100 7.524 C 299.419 7.633,300.432 8.800,299.208 8.800 C 298.992 8.800,298.702 9.250,298.564 9.800 C 298.426 10.350,298.153 10.800,297.957 10.800 C 297.760 10.800,297.600 11.250,297.600 11.800 C 297.600 12.350,297.395 12.800,297.144 12.800 C 296.529 12.800,295.628 14.035,295.613 14.900 C 295.584 16.454,292.400 13.962,292.400 12.386 C 292.400 11.954,292.220 11.600,292.000 11.600 C 291.780 11.600,291.600 11.343,291.600 11.029 C 291.600 10.714,291.363 10.219,291.072 9.929 C 289.966 8.820,290.000 7.655,291.143 7.522 C 292.100 7.412,292.212 7.219,292.322 5.500 L 292.444 3.600 282.422 3.600 L 272.400 3.600 272.400 5.000 M366.400 5.000 C 366.400 5.770,366.580 6.400,366.800 6.400 C 367.020 6.400,367.200 6.670,367.200 7.000 C 367.200 7.421,367.625 7.600,368.629 7.600 C 371.273 7.600,371.200 7.141,371.200 23.771 C 371.200 33.524,371.060 38.800,370.800 38.800 C 370.580 38.800,370.400 39.070,370.400 39.400 C 370.400 39.833,369.956 40.000,368.800 40.000 C 367.920 40.000,367.200 40.180,367.200 40.400 C 367.200 40.620,366.750 40.800,366.200 40.800 C 365.300 40.800,365.200 40.960,365.200 42.400 L 365.200 44.000 381.800 44.000 L 398.400 44.000 398.400 42.443 C 398.400 41.508,398.615 40.803,398.938 40.679 C 399.662 40.401,400.196 33.318,399.551 32.541 C 398.467 31.235,395.600 32.242,395.600 33.929 C 395.600 34.361,395.330 34.818,395.000 34.945 C 394.670 35.071,394.400 35.541,394.400 35.987 C 394.400 36.434,394.220 36.800,394.000 36.800 C 393.780 36.800,393.600 37.070,393.600 37.400 C 393.600 37.730,393.407 38.000,393.171 38.000 C 392.618 38.000,391.600 39.018,391.600 39.571 C 391.600 39.850,390.062 40.000,387.200 40.000 C 381.023 40.000,381.200 40.236,381.200 32.000 L 381.200 25.600 384.800 25.600 C 387.733 25.600,388.400 25.711,388.400 26.200 C 388.400 26.530,388.670 26.800,389.000 26.800 C 389.419 26.800,389.600 27.222,389.600 28.200 L 389.600 29.600 392.000 29.600 L 394.400 29.600 394.400 23.200 L 394.400 16.800 392.000 16.800 L 389.600 16.800 389.600 18.200 C 389.600 19.178,389.419 19.600,389.000 19.600 C 388.670 19.600,388.400 19.870,388.400 20.200 C 388.400 20.689,387.733 20.800,384.800 20.800 L 381.200 20.800 381.200 14.200 L 381.200 7.600 385.200 7.600 L 389.200 7.600 390.800 9.200 C 392.057 10.457,392.400 11.100,392.400 12.200 C 392.400 13.178,392.581 13.600,393.000 13.600 C 393.330 13.600,393.600 13.870,393.600 14.200 C 393.600 14.601,394.001 14.800,394.813 14.800 C 395.521 14.800,396.121 14.551,396.255 14.200 C 396.382 13.870,396.736 13.600,397.043 13.600 C 397.445 13.600,397.600 13.043,397.600 11.600 C 397.600 10.089,397.453 9.600,397.000 9.600 C 396.520 9.600,396.400 9.000,396.400 6.600 L 396.400 3.600 381.400 3.600 L 366.400 3.600 366.400 5.000 M22.000 8.000 C 22.000 8.220,22.630 8.400,23.400 8.400 C 24.378 8.400,24.800 8.581,24.800 9.000 C 24.800 9.330,25.070 9.600,25.400 9.600 C 25.730 9.600,26.000 9.780,26.000 10.000 C 26.000 10.220,26.450 10.400,27.000 10.400 C 27.800 10.400,28.000 10.600,28.000 11.400 C 28.000 11.950,28.180 12.400,28.400 12.400 C 28.620 12.400,28.800 12.670,28.800 13.000 C 28.800 13.330,29.070 13.600,29.400 13.600 C 29.773 13.600,30.000 13.978,30.000 14.600 C 30.000 15.150,30.180 15.600,30.400 15.600 C 30.620 15.600,30.800 16.236,30.800 17.013 C 30.800 17.899,31.023 18.511,31.400 18.655 C 31.889 18.843,32.000 19.805,32.000 23.843 C 32.000 27.983,31.901 28.800,31.400 28.800 C 30.967 28.800,30.800 29.244,30.800 30.400 C 30.800 31.280,30.620 32.000,30.400 32.000 C 30.180 32.000,30.000 32.450,30.000 33.000 C 30.000 33.550,29.807 34.000,29.571 34.000 C 29.018 34.000,28.000 35.018,28.000 35.571 C 28.000 35.807,27.807 36.000,27.571 36.000 C 27.018 36.000,26.000 37.018,26.000 37.571 C 26.000 37.807,25.730 38.000,25.400 38.000 C 25.070 38.000,24.800 38.180,24.800 38.400 C 24.800 38.620,24.350 38.800,23.800 38.800 C 23.178 38.800,22.800 39.027,22.800 39.400 C 22.800 40.668,17.436 40.204,16.014 38.813 L 14.800 37.627 14.800 23.197 C 14.800 12.222,14.920 8.630,15.300 8.198 C 15.892 7.526,22.000 7.346,22.000 8.000 M198.400 18.413 C 198.400 18.859,198.670 19.329,199.000 19.455 C 199.391 19.605,199.600 20.228,199.600 21.243 C 199.600 22.099,199.780 22.800,200.000 22.800 C 200.220 22.800,200.400 23.346,200.400 24.013 C 200.400 24.721,200.649 25.321,201.000 25.455 C 202.878 26.176,201.487 26.800,198.000 26.800 C 195.067 26.800,194.400 26.689,194.400 26.200 C 194.400 25.870,194.670 25.600,195.000 25.600 C 195.373 25.600,195.600 25.222,195.600 24.600 C 195.600 24.050,195.780 23.600,196.000 23.600 C 196.220 23.600,196.400 22.989,196.400 22.243 C 196.400 21.405,196.630 20.797,197.000 20.655 C 197.377 20.511,197.600 19.899,197.600 19.013 C 197.600 18.236,197.780 17.600,198.000 17.600 C 198.220 17.600,198.400 17.966,198.400 18.413 " stroke="none" fill="#ffffff" fill-rule="evenodd"></path></g></svg>